<svg xmlns="http://www.w3.org/2000/svg" version="1.1" id="Layer_1" x="0" y="0" width="485.419" height="94.26" viewBox="0 0 485.419 94.26" enable-background="new 0 0 1600 1200" xml:space="preserve"><defs id="defs134"><filter id="filter32776" color-interpolation-filters="sRGB"><feComposite in2="SourceGraphic" operator="arithmetic" k1="0" k2="1.925" result="composite1" id="feComposite32762"/><feColorMatrix in="composite1" values="1" type="saturate" result="colormatrix1" id="feColorMatrix32764"/><feFlood flood-opacity="1" flood-color="#FFF" result="flood1" id="feFlood32766"/><feBlend in="flood1" in2="colormatrix1" mode="normal" result="blend1" id="feBlend32768"/><feBlend in2="blend1" mode="screen" result="blend2" id="feBlend32770"/><feColorMatrix in="blend2" values="1" type="saturate" result="colormatrix2" id="feColorMatrix32772"/><feComposite in="colormatrix2" in2="SourceGraphic" operator="in" k2="1" result="composite2" id="feComposite32774"/></filter><filter id="filter32792" color-interpolation-filters="sRGB"><feComposite in2="SourceGraphic" operator="arithmetic" k1="0" k2="1.925" result="composite1" id="feComposite32778"/><feColorMatrix in="composite1" values="1" type="saturate" result="colormatrix1" id="feColorMatrix32780"/><feFlood flood-opacity="1" flood-color="#FFF" result="flood1" id="feFlood32782"/><feBlend in="flood1" in2="colormatrix1" mode="normal" result="blend1" id="feBlend32784"/><feBlend in2="blend1" mode="screen" result="blend2" id="feBlend32786"/><feColorMatrix in="blend2" values="1" type="saturate" result="colormatrix2" id="feColorMatrix32788"/><feComposite in="colormatrix2" in2="SourceGraphic" operator="in" k2="1" result="composite2" id="feComposite32790"/></filter><filter id="filter32808" color-interpolation-filters="sRGB"><feComposite in2="SourceGraphic" operator="arithmetic" k1="0" k2="1.925" result="composite1" id="feComposite32794"/><feColorMatrix in="composite1" values="1" type="saturate" result="colormatrix1" id="feColorMatrix32796"/><feFlood flood-opacity="1" flood-color="#FFF" result="flood1" id="feFlood32798"/><feBlend in="flood1" in2="colormatrix1" mode="normal" result="blend1" id="feBlend32800"/><feBlend in2="blend1" mode="screen" result="blend2" id="feBlend32802"/><feColorMatrix in="blend2" values="1" type="saturate" result="colormatrix2" id="feColorMatrix32804"/><feComposite in="colormatrix2" in2="SourceGraphic" operator="in" k2="1" result="composite2" id="feComposite32806"/></filter><filter id="filter32824" color-interpolation-filters="sRGB"><feComposite in2="SourceGraphic" operator="arithmetic" k1="0" k2="1.925" result="composite1" id="feComposite32810"/><feColorMatrix in="composite1" values="1" type="saturate" result="colormatrix1" id="feColorMatrix32812"/><feFlood flood-opacity="1" flood-color="#FFF" result="flood1" id="feFlood32814"/><feBlend in="flood1" in2="colormatrix1" mode="normal" result="blend1" id="feBlend32816"/><feBlend in2="blend1" mode="screen" result="blend2" id="feBlend32818"/><feColorMatrix in="blend2" values="1" type="saturate" result="colormatrix2" id="feColorMatrix32820"/><feComposite in="colormatrix2" in2="SourceGraphic" operator="in" k2="1" result="composite2" id="feComposite32822"/></filter><filter id="filter32840" color-interpolation-filters="sRGB"><feComposite in2="SourceGraphic" operator="arithmetic" k1="0" k2="1.925" result="composite1" id="feComposite32826"/><feColorMatrix in="composite1" values="1" type="saturate" result="colormatrix1" id="feColorMatrix32828"/><feFlood flood-opacity="1" flood-color="#FFF" result="flood1" id="feFlood32830"/><feBlend in="flood1" in2="colormatrix1" mode="normal" result="blend1" id="feBlend32832"/><feBlend in2="blend1" mode="screen" result="blend2" id="feBlend32834"/><feColorMatrix in="blend2" values="1" type="saturate" result="colormatrix2" id="feColorMatrix32836"/><feComposite in="colormatrix2" in2="SourceGraphic" operator="in" k2="1" result="composite2" id="feComposite32838"/></filter><filter id="filter32856" color-interpolation-filters="sRGB"><feComposite in2="SourceGraphic" operator="arithmetic" k1="0" k2="1.925" result="composite1" id="feComposite32842"/><feColorMatrix in="composite1" values="1" type="saturate" result="colormatrix1" id="feColorMatrix32844"/><feFlood flood-opacity="1" flood-color="#FFF" result="flood1" id="feFlood32846"/><feBlend in="flood1" in2="colormatrix1" mode="normal" result="blend1" id="feBlend32848"/><feBlend in2="blend1" mode="screen" result="blend2" id="feBlend32850"/><feColorMatrix in="blend2" values="1" type="saturate" result="colormatrix2" id="feColorMatrix32852"/><feComposite in="colormatrix2" in2="SourceGraphic" operator="in" k2="1" result="composite2" id="feComposite32854"/></filter><filter id="filter32872" color-interpolation-filters="sRGB"><feComposite in2="SourceGraphic" operator="arithmetic" k1="0" k2="1.925" result="composite1" id="feComposite32858"/><feColorMatrix in="composite1" values="1" type="saturate" result="colormatrix1" id="feColorMatrix32860"/><feFlood flood-opacity="1" flood-color="#FFF" result="flood1" id="feFlood32862"/><feBlend in="flood1" in2="colormatrix1" mode="normal" result="blend1" id="feBlend32864"/><feBlend in2="blend1" mode="screen" result="blend2" id="feBlend32866"/><feColorMatrix in="blend2" values="1" type="saturate" result="colormatrix2" id="feColorMatrix32868"/><feComposite in="colormatrix2" in2="SourceGraphic" operator="in" k2="1" result="composite2" id="feComposite32870"/></filter><filter id="filter32888" color-interpolation-filters="sRGB"><feComposite in2="SourceGraphic" operator="arithmetic" k1="0" k2="1.925" result="composite1" id="feComposite32874"/><feColorMatrix in="composite1" values="1" type="saturate" result="colormatrix1" id="feColorMatrix32876"/><feFlood flood-opacity="1" flood-color="#FFF" result="flood1" id="feFlood32878"/><feBlend in="flood1" in2="colormatrix1" mode="normal" result="blend1" id="feBlend32880"/><feBlend in2="blend1" mode="screen" result="blend2" id="feBlend32882"/><feColorMatrix in="blend2" values="1" type="saturate" result="colormatrix2" id="feColorMatrix32884"/><feComposite in="colormatrix2" in2="SourceGraphic" operator="in" k2="1" result="composite2" id="feComposite32886"/></filter><filter id="filter32904" color-interpolation-filters="sRGB"><feComposite in2="SourceGraphic" operator="arithmetic" k1="0" k2="1.925" result="composite1" id="feComposite32890"/><feColorMatrix in="composite1" values="1" type="saturate" result="colormatrix1" id="feColorMatrix32892"/><feFlood flood-opacity="1" flood-color="#FFF" result="flood1" id="feFlood32894"/><feBlend in="flood1" in2="colormatrix1" mode="normal" result="blend1" id="feBlend32896"/><feBlend in2="blend1" mode="screen" result="blend2" id="feBlend32898"/><feColorMatrix in="blend2" values="1" type="saturate" result="colormatrix2" id="feColorMatrix32900"/><feComposite in="colormatrix2" in2="SourceGraphic" operator="in" k2="1" result="composite2" id="feComposite32902"/></filter><filter id="filter32920" color-interpolation-filters="sRGB"><feComposite in2="SourceGraphic" operator="arithmetic" k1="0" k2="1.925" result="composite1" id="feComposite32906"/><feColorMatrix in="composite1" values="1" type="saturate" result="colormatrix1" id="feColorMatrix32908"/><feFlood flood-opacity="1" flood-color="#FFF" result="flood1" id="feFlood32910"/><feBlend in="flood1" in2="colormatrix1" mode="normal" result="blend1" id="feBlend32912"/><feBlend in2="blend1" mode="screen" result="blend2" id="feBlend32914"/><feColorMatrix in="blend2" values="1" type="saturate" result="colormatrix2" id="feColorMatrix32916"/><feComposite in="colormatrix2" in2="SourceGraphic" operator="in" k2="1" result="composite2" id="feComposite32918"/></filter><filter id="filter32936" color-interpolation-filters="sRGB"><feComposite in2="SourceGraphic" operator="arithmetic" k1="0" k2="1.925" result="composite1" id="feComposite32922"/><feColorMatrix in="composite1" values="1" type="saturate" result="colormatrix1" id="feColorMatrix32924"/><feFlood flood-opacity="1" flood-color="#FFF" result="flood1" id="feFlood32926"/><feBlend in="flood1" in2="colormatrix1" mode="normal" result="blend1" id="feBlend32928"/><feBlend in2="blend1" mode="screen" result="blend2" id="feBlend32930"/><feColorMatrix in="blend2" values="1" type="saturate" result="colormatrix2" id="feColorMatrix32932"/><feComposite in="colormatrix2" in2="SourceGraphic" operator="in" k2="1" result="composite2" id="feComposite32934"/></filter><filter id="filter32952" color-interpolation-filters="sRGB"><feComposite in2="SourceGraphic" operator="arithmetic" k1="0" k2="1.925" result="composite1" id="feComposite32938"/><feColorMatrix in="composite1" values="1" type="saturate" result="colormatrix1" id="feColorMatrix32940"/><feFlood flood-opacity="1" flood-color="#FFF" result="flood1" id="feFlood32942"/><feBlend in="flood1" in2="colormatrix1" mode="normal" result="blend1" id="feBlend32944"/><feBlend in2="blend1" mode="screen" result="blend2" id="feBlend32946"/><feColorMatrix in="blend2" values="1" type="saturate" result="colormatrix2" id="feColorMatrix32948"/><feComposite in="colormatrix2" in2="SourceGraphic" operator="in" k2="1" result="composite2" id="feComposite32950"/></filter><filter id="filter32968" color-interpolation-filters="sRGB"><feComposite in2="SourceGraphic" operator="arithmetic" k1="0" k2="1.925" result="composite1" id="feComposite32954"/><feColorMatrix in="composite1" values="1" type="saturate" result="colormatrix1" id="feColorMatrix32956"/><feFlood flood-opacity="1" flood-color="#FFF" result="flood1" id="feFlood32958"/><feBlend in="flood1" in2="colormatrix1" mode="normal" result="blend1" id="feBlend32960"/><feBlend in2="blend1" mode="screen" result="blend2" id="feBlend32962"/><feColorMatrix in="blend2" values="1" type="saturate" result="colormatrix2" id="feColorMatrix32964"/><feComposite in="colormatrix2" in2="SourceGraphic" operator="in" k2="1" result="composite2" id="feComposite32966"/></filter><filter id="filter32984" color-interpolation-filters="sRGB"><feComposite in2="SourceGraphic" operator="arithmetic" k1="0" k2="1.925" result="composite1" id="feComposite32970"/><feColorMatrix in="composite1" values="1" type="saturate" result="colormatrix1" id="feColorMatrix32972"/><feFlood flood-opacity="1" flood-color="#FFF" result="flood1" id="feFlood32974"/><feBlend in="flood1" in2="colormatrix1" mode="normal" result="blend1" id="feBlend32976"/><feBlend in2="blend1" mode="screen" result="blend2" id="feBlend32978"/><feColorMatrix in="blend2" values="1" type="saturate" result="colormatrix2" id="feColorMatrix32980"/><feComposite in="colormatrix2" in2="SourceGraphic" operator="in" k2="1" result="composite2" id="feComposite32982"/></filter><filter id="filter33000" color-interpolation-filters="sRGB"><feComposite in2="SourceGraphic" operator="arithmetic" k1="0" k2="1.925" result="composite1" id="feComposite32986"/><feColorMatrix in="composite1" values="1" type="saturate" result="colormatrix1" id="feColorMatrix32988"/><feFlood flood-opacity="1" flood-color="#FFF" result="flood1" id="feFlood32990"/><feBlend in="flood1" in2="colormatrix1" mode="normal" result="blend1" id="feBlend32992"/><feBlend in2="blend1" mode="screen" result="blend2" id="feBlend32994"/><feColorMatrix in="blend2" values="1" type="saturate" result="colormatrix2" id="feColorMatrix32996"/><feComposite in="colormatrix2" in2="SourceGraphic" operator="in" k2="1" result="composite2" id="feComposite32998"/></filter><filter id="filter33016" color-interpolation-filters="sRGB"><feComposite in2="SourceGraphic" operator="arithmetic" k1="0" k2="1.925" result="composite1" id="feComposite33002"/><feColorMatrix in="composite1" values="1" type="saturate" result="colormatrix1" id="feColorMatrix33004"/><feFlood flood-opacity="1" flood-color="#FFF" result="flood1" id="feFlood33006"/><feBlend in="flood1" in2="colormatrix1" mode="normal" result="blend1" id="feBlend33008"/><feBlend in2="blend1" mode="screen" result="blend2" id="feBlend33010"/><feColorMatrix in="blend2" values="1" type="saturate" result="colormatrix2" id="feColorMatrix33012"/><feComposite in="colormatrix2" in2="SourceGraphic" operator="in" k2="1" result="composite2" id="feComposite33014"/></filter><filter id="filter33032" color-interpolation-filters="sRGB"><feComposite in2="SourceGraphic" operator="arithmetic" k1="0" k2="1.925" result="composite1" id="feComposite33018"/><feColorMatrix in="composite1" values="1" type="saturate" result="colormatrix1" id="feColorMatrix33020"/><feFlood flood-opacity="1" flood-color="#FFF" result="flood1" id="feFlood33022"/><feBlend in="flood1" in2="colormatrix1" mode="normal" result="blend1" id="feBlend33024"/><feBlend in2="blend1" mode="screen" result="blend2" id="feBlend33026"/><feColorMatrix in="blend2" values="1" type="saturate" result="colormatrix2" id="feColorMatrix33028"/><feComposite in="colormatrix2" in2="SourceGraphic" operator="in" k2="1" result="composite2" id="feComposite33030"/></filter><filter id="filter33048" color-interpolation-filters="sRGB"><feComposite in2="SourceGraphic" operator="arithmetic" k1="0" k2="1.925" result="composite1" id="feComposite33034"/><feColorMatrix in="composite1" values="1" type="saturate" result="colormatrix1" id="feColorMatrix33036"/><feFlood flood-opacity="1" flood-color="#FFF" result="flood1" id="feFlood33038"/><feBlend in="flood1" in2="colormatrix1" mode="normal" result="blend1" id="feBlend33040"/><feBlend in2="blend1" mode="screen" result="blend2" id="feBlend33042"/><feColorMatrix in="blend2" values="1" type="saturate" result="colormatrix2" id="feColorMatrix33044"/><feComposite in="colormatrix2" in2="SourceGraphic" operator="in" k2="1" result="composite2" id="feComposite33046"/></filter><filter id="filter33064" color-interpolation-filters="sRGB"><feComposite in2="SourceGraphic" operator="arithmetic" k1="0" k2="1.925" result="composite1" id="feComposite33050"/><feColorMatrix in="composite1" values="1" type="saturate" result="colormatrix1" id="feColorMatrix33052"/><feFlood flood-opacity="1" flood-color="#FFF" result="flood1" id="feFlood33054"/><feBlend in="flood1" in2="colormatrix1" mode="normal" result="blend1" id="feBlend33056"/><feBlend in2="blend1" mode="screen" result="blend2" id="feBlend33058"/><feColorMatrix in="blend2" values="1" type="saturate" result="colormatrix2" id="feColorMatrix33060"/><feComposite in="colormatrix2" in2="SourceGraphic" operator="in" k2="1" result="composite2" id="feComposite33062"/></filter><filter id="filter33080" color-interpolation-filters="sRGB"><feComposite in2="SourceGraphic" operator="arithmetic" k1="0" k2="1.925" result="composite1" id="feComposite33066"/><feColorMatrix in="composite1" values="1" type="saturate" result="colormatrix1" id="feColorMatrix33068"/><feFlood flood-opacity="1" flood-color="#FFF" result="flood1" id="feFlood33070"/><feBlend in="flood1" in2="colormatrix1" mode="normal" result="blend1" id="feBlend33072"/><feBlend in2="blend1" mode="screen" result="blend2" id="feBlend33074"/><feColorMatrix in="blend2" values="1" type="saturate" result="colormatrix2" id="feColorMatrix33076"/><feComposite in="colormatrix2" in2="SourceGraphic" operator="in" k2="1" result="composite2" id="feComposite33078"/></filter><filter id="filter33096" color-interpolation-filters="sRGB"><feComposite in2="SourceGraphic" operator="arithmetic" k1="0" k2="1.925" result="composite1" id="feComposite33082"/><feColorMatrix in="composite1" values="1" type="saturate" result="colormatrix1" id="feColorMatrix33084"/><feFlood flood-opacity="1" flood-color="#FFF" result="flood1" id="feFlood33086"/><feBlend in="flood1" in2="colormatrix1" mode="normal" result="blend1" id="feBlend33088"/><feBlend in2="blend1" mode="screen" result="blend2" id="feBlend33090"/><feColorMatrix in="blend2" values="1" type="saturate" result="colormatrix2" id="feColorMatrix33092"/><feComposite in="colormatrix2" in2="SourceGraphic" operator="in" k2="1" result="composite2" id="feComposite33094"/></filter><filter id="filter33112" color-interpolation-filters="sRGB"><feComposite in2="SourceGraphic" operator="arithmetic" k1="0" k2="1.925" result="composite1" id="feComposite33098"/><feColorMatrix in="composite1" values="1" type="saturate" result="colormatrix1" id="feColorMatrix33100"/><feFlood flood-opacity="1" flood-color="#FFF" result="flood1" id="feFlood33102"/><feBlend in="flood1" in2="colormatrix1" mode="normal" result="blend1" id="feBlend33104"/><feBlend in2="blend1" mode="screen" result="blend2" id="feBlend33106"/><feColorMatrix in="blend2" values="1" type="saturate" result="colormatrix2" id="feColorMatrix33108"/><feComposite in="colormatrix2" in2="SourceGraphic" operator="in" k2="1" result="composite2" id="feComposite33110"/></filter><filter id="filter33128" color-interpolation-filters="sRGB"><feComposite in2="SourceGraphic" operator="arithmetic" k1="0" k2="1.925" result="composite1" id="feComposite33114"/><feColorMatrix in="composite1" values="1" type="saturate" result="colormatrix1" id="feColorMatrix33116"/><feFlood flood-opacity="1" flood-color="#FFF" result="flood1" id="feFlood33118"/><feBlend in="flood1" in2="colormatrix1" mode="normal" result="blend1" id="feBlend33120"/><feBlend in2="blend1" mode="screen" result="blend2" id="feBlend33122"/><feColorMatrix in="blend2" values="1" type="saturate" result="colormatrix2" id="feColorMatrix33124"/><feComposite in="colormatrix2" in2="SourceGraphic" operator="in" k2="1" result="composite2" id="feComposite33126"/></filter><filter id="filter33144" color-interpolation-filters="sRGB"><feComposite in2="SourceGraphic" operator="arithmetic" k1="0" k2="1.925" result="composite1" id="feComposite33130"/><feColorMatrix in="composite1" values="1" type="saturate" result="colormatrix1" id="feColorMatrix33132"/><feFlood flood-opacity="1" flood-color="#FFF" result="flood1" id="feFlood33134"/><feBlend in="flood1" in2="colormatrix1" mode="normal" result="blend1" id="feBlend33136"/><feBlend in2="blend1" mode="screen" result="blend2" id="feBlend33138"/><feColorMatrix in="blend2" values="1" type="saturate" result="colormatrix2" id="feColorMatrix33140"/><feComposite in="colormatrix2" in2="SourceGraphic" operator="in" k2="1" result="composite2" id="feComposite33142"/></filter><filter id="filter33160" color-interpolation-filters="sRGB"><feComposite in2="SourceGraphic" operator="arithmetic" k1="0" k2="1.925" result="composite1" id="feComposite33146"/><feColorMatrix in="composite1" values="1" type="saturate" result="colormatrix1" id="feColorMatrix33148"/><feFlood flood-opacity="1" flood-color="#FFF" result="flood1" id="feFlood33150"/><feBlend in="flood1" in2="colormatrix1" mode="normal" result="blend1" id="feBlend33152"/><feBlend in2="blend1" mode="screen" result="blend2" id="feBlend33154"/><feColorMatrix in="blend2" values="1" type="saturate" result="colormatrix2" id="feColorMatrix33156"/><feComposite in="colormatrix2" in2="SourceGraphic" operator="in" k2="1" result="composite2" id="feComposite33158"/></filter></defs><path id="polygon2" transform="translate(-557.291 -552.87)" filter="url(#filter33160)" d="M712.459 582.144h-21.881l-20.034 37.002h22.703z"/><path id="polygon4" transform="translate(-557.291 -552.87)" filter="url(#filter33144)" d="M746.707 619.146h22.611l-20.341-37.002h-22.01l5.825 11.005z"/><path id="polygon6" transform="translate(-557.291 -552.87)" fill="#e52d27" d="M697.89 568.249h43.236l-8.454-15.379h-26.456z"/><path id="path8" d="M280.02 30.941c-1.16 1.099-3.083 1.648-5.767 1.648h-33.596v-3.315h-20.322v37.002h20.322v-17.21h31.948c3.173 0 5.355.672 6.545 2.014 1.19 1.343 1.785 3.753 1.785 7.232v7.964h20.322v-11.26c0-2.623-.274-4.836-.824-6.637-.549-1.799-1.327-3.218-2.334-4.257a11.19 11.19 0 00-3.433-2.426c-1.282-.579-2.778-1.021-4.485-1.327v-.183c4.454-1.037 7.461-2.822 9.017-5.355.905-1.472 1.538-3.333 1.917-5.558h-19.978c-.28.665-.649 1.224-1.117 1.668z" filter="url(#filter33128)"/><path id="path10" d="M300.359 11.443c-.641-2.38-1.709-4.424-3.204-6.133-1.496-1.708-3.524-3.021-6.087-3.936-2.563-.916-5.767-1.373-9.612-1.373h-61.333V15.38h80.965a27.002 27.002 0 00-.729-3.937z" fill="#e52d27"/><path id="polygon12" transform="translate(-557.291 -552.87)" filter="url(#filter33112)" d="M902.499 582.144h-21.915l19.882 37.002h25.082l19.881-37.002h-21.915l-10.508 19.976z"/><path id="polygon14" transform="translate(-557.291 -552.87)" fill="#e52d27" d="M961.157 552.87h-22.244l-8.09 15.379h22.071z"/><path id="polygon16" transform="translate(-557.291 -552.87)" fill="#e52d27" d="M887.1 552.87h-22.244l8.263 15.379h22.071z"/><path id="polygon18" transform="translate(-557.291 -552.87)" fill="#e52d27" d="M968.48 568.249h72.502V552.87H968.48z"/><path id="polygon20" transform="translate(-557.291 -552.87)" filter="url(#filter33096)" d="M988.803 603.218v-10.619h49.432v-10.455H968.48v37.002h73.691v-15.928z"/><g id="g28" transform="translate(-557.291 -552.87)" filter="url(#filter33064)"><g id="g26"><path id="rect24" d="M670.496 625.799h372.214v1.5H670.496z"/></g></g><path d="M119.878 77.729h4.095l5.639 10.259h-3.5l-.978-1.814h-6.376l-.921 1.814h-3.514zm.057 6.235h4.024l-2.04-3.854z" id="path30" fill="#e52d27"/><path d="M130.42 83.723c0-.519.045-.959.135-1.318.09-.359.267-.671.531-.935s.654-.468 1.169-.609c.515-.142 1.193-.213 2.033-.213h.808c.302 0 .586.024.85.071.264.047.51.125.737.234.227.109.416.258.567.446.151.189.245.421.283.695h.028V77.73h2.72v10.259h-2.55v-1.332h-.028a1.957 1.957 0 01-.843 1.077c-.402.246-.994.369-1.778.369h-.793c-.841 0-1.518-.071-2.033-.213-.515-.142-.905-.345-1.169-.609a1.965 1.965 0 01-.531-.935c-.09-.359-.135-.798-.135-1.318v-1.305zm2.636 1.077c0 .454.088.777.262.971.175.194.565.291 1.169.291h1.601c.576 0 .994-.092 1.254-.276.26-.184.39-.536.39-1.056v-.708c0-.52-.13-.871-.39-1.056-.26-.184-.678-.276-1.254-.276h-1.601c-.604 0-.994.097-1.169.29-.175.194-.262.517-.262.971z" id="path32" fill="#e52d27"/><path d="M141.302 80.762h2.962l2.21 5.101 2.21-5.101h2.961l-3.471 7.226h-3.401z" id="path34" fill="#e52d27"/><path d="M152.213 85.452c0-.482.082-.864.248-1.148.165-.283.411-.491.737-.624a4.032 4.032 0 011.176-.255 23.269 23.269 0 011.835-.057c.841 0 1.462.033 1.863.099.402.066.725.227.971.481v-.637c0-.368-.083-.621-.248-.758-.166-.137-.508-.205-1.027-.205h-1.601c-.416 0-.692.036-.829.107-.137.071-.21.229-.22.474h-2.635c0-.482.062-.874.184-1.176a1.42 1.42 0 01.574-.694c.26-.161.588-.269.984-.326.397-.056.902-.085 1.516-.085h3.16c.935 0 1.646.22 2.133.659.486.439.73 1.084.73 1.934v4.747h-2.579v-.822a5.636 5.636 0 01-.517.489c-.147.118-.3.21-.461.276-.161.066-.35.111-.567.135a8.353 8.353 0 01-.85.036h-1.856c-.916 0-1.599-.146-2.047-.439-.449-.293-.673-.831-.673-1.615v-.596zm4.845.949c.463 0 .829-.016 1.098-.05.269-.033.472-.082.609-.149.137-.066.227-.142.269-.227a.771.771 0 00.064-.34c0-.293-.099-.489-.298-.588-.198-.099-.652-.149-1.36-.149h-1.204c-.548 0-.916.064-1.105.191-.189.127-.283.347-.283.659 0 .237.106.404.319.503.212.099.583.149 1.112.149h.779z" id="path36" fill="#e52d27"/><path d="M163.506 80.762h2.721v1.162h.028c.227-.482.572-.815 1.034-.999.463-.184 1.082-.276 1.856-.276.567 0 1.063.026 1.488.078.425.052.834.177 1.226.376.392.198.711.52.956.963.246.444.368 1.034.368 1.771v4.152h-2.72v-4.152c0-.708-.586-1.063-1.757-1.063h-.624c-.586 0-1.041.135-1.367.404-.326.269-.489.659-.489 1.169v3.642h-2.721v-7.227z" id="path38" fill="#e52d27"/><path d="M174.713 83.978c0-.661.078-1.212.234-1.651.156-.439.38-.779.673-1.02.293-.241.64-.411 1.042-.51a5.857 5.857 0 011.396-.149h3.061c1.039 0 1.839.196 2.402.588.562.392.843.994.843 1.807v.652h-2.635c0-.368-.116-.628-.347-.78-.232-.151-.64-.227-1.226-.227h-1.049c-.576 0-.999.088-1.268.262-.269.175-.404.456-.404.843v.963c0 .444.125.758.375.942.25.184.607.276 1.07.276h1.389c.434 0 .786-.064 1.056-.191.269-.127.404-.342.404-.645v-.17h2.635v.637c0 .463-.088.857-.262 1.183a2.016 2.016 0 01-.715.772 3.26 3.26 0 01-1.013.411 5.316 5.316 0 01-1.183.128h-2.777c-.52 0-.99-.038-1.41-.114a2.961 2.961 0 01-1.155-.468c-.349-.236-.626-.586-.829-1.049-.203-.463-.305-1.063-.305-1.8v-.69z" id="path40" fill="#e52d27"/><path d="M185.553 83.978c0-.661.078-1.212.234-1.651.156-.439.38-.779.673-1.02.293-.241.64-.411 1.042-.51a5.857 5.857 0 011.396-.149h1.899c.755 0 1.386.048 1.891.142.505.094.919.255 1.24.482.321.227.56.541.716.942.156.402.234.919.234 1.551v1.219h-6.603v.439c0 .368.13.624.39.765.26.142.687.213 1.282.213h.836c.359 0 .642-.021.85-.064.208-.042.361-.101.461-.177a.513.513 0 00.191-.248c.028-.089.042-.2.042-.333h2.55v.312c0 .435-.09.799-.269 1.091-.18.293-.432.52-.758.68a3.872 3.872 0 01-1.126.34 9.381 9.381 0 01-1.431.099h-2.04c-.52 0-.99-.038-1.41-.114a2.961 2.961 0 01-1.155-.468c-.349-.236-.626-.586-.829-1.049-.203-.463-.305-1.063-.305-1.8v-.692zm6.688-.609c0-.425-.127-.702-.383-.829-.255-.128-.789-.192-1.601-.192-.473 0-.834.014-1.084.042-.25.029-.442.076-.574.142a.489.489 0 00-.262.291 1.82 1.82 0 00-.064.546z" id="path42" fill="#e52d27"/><path d="M196.223 83.723c0-.519.045-.959.135-1.318.09-.359.267-.671.531-.935s.654-.468 1.169-.609c.515-.142 1.193-.213 2.033-.213h.808c.302 0 .586.024.85.071.264.047.51.125.737.234.227.109.416.258.567.446.151.189.245.421.283.695h.028V77.73h2.72v10.259h-2.55v-1.332h-.028a1.957 1.957 0 01-.843 1.077c-.402.246-.994.369-1.778.369h-.793c-.841 0-1.518-.071-2.033-.213-.515-.142-.905-.345-1.169-.609a1.965 1.965 0 01-.531-.935c-.09-.359-.135-.798-.135-1.318v-1.305zm2.635 1.077c0 .454.087.777.262.971.175.194.565.291 1.169.291h1.601c.576 0 .994-.092 1.254-.276.26-.184.39-.536.39-1.056v-.708c0-.52-.13-.871-.39-1.056-.26-.184-.678-.276-1.254-.276h-1.601c-.604 0-.994.097-1.169.29-.175.194-.262.517-.262.971z" id="path44" fill="#e52d27"/><path d="M215.082 77.729h9.493c.595 0 1.091.071 1.488.213.397.142.711.345.942.609.231.264.397.581.496.949.099.368.149.793.149 1.275v.652c0 .737-.12 1.301-.361 1.693-.241.392-.706.669-1.396.829v.029c.264.047.496.116.694.205.198.09.376.215.531.376.156.161.276.38.361.659.085.279.128.621.128 1.027v1.743h-3.146v-1.233c0-.539-.092-.911-.276-1.119-.184-.208-.522-.312-1.013-.312h-4.945v2.664h-3.145zm3.145 5.045h5.2c.416 0 .713-.085.893-.255.179-.17.269-.444.269-.822v-.34c0-.434-.109-.722-.326-.864-.217-.142-.59-.213-1.119-.213h-4.917z" id="path46" filter="url(#filter33080)"/><path d="M229.308 83.978c0-.661.078-1.212.234-1.651.156-.439.38-.779.673-1.02.293-.241.64-.411 1.042-.51a5.857 5.857 0 011.396-.149h1.899c.755 0 1.386.048 1.891.142.505.094.919.255 1.24.482.321.227.56.541.716.942.156.402.234.919.234 1.551v1.219h-6.603v.439c0 .368.13.624.39.765.26.142.687.213 1.282.213h.836c.359 0 .642-.021.85-.064.208-.042.361-.101.461-.177a.513.513 0 00.191-.248c.028-.089.042-.2.042-.333h2.551v.312c0 .435-.09.799-.269 1.091-.18.293-.432.52-.758.68a3.872 3.872 0 01-1.126.34 9.381 9.381 0 01-1.431.099h-2.04c-.52 0-.99-.038-1.41-.114a2.955 2.955 0 01-1.155-.468c-.349-.236-.626-.586-.829-1.049-.203-.463-.305-1.063-.305-1.8v-.692zm6.688-.609c0-.425-.127-.702-.383-.829-.255-.128-.789-.192-1.601-.192-.473 0-.834.014-1.084.042-.25.029-.442.076-.574.142a.489.489 0 00-.262.291 1.82 1.82 0 00-.064.546z" id="path48" filter="url(#filter33032)"/><path d="M242.698 85.735c0 .113.016.208.049.283.033.075.106.142.22.198.113.057.286.102.517.135.231.033.532.05.9.05h.964c.652 0 1.084-.036 1.296-.107.212-.071.319-.215.319-.432s-.08-.37-.241-.461c-.161-.09-.472-.134-.935-.134h-2.55c-.652-.01-1.186-.055-1.601-.135-.416-.08-.746-.215-.992-.404a1.567 1.567 0 01-.531-.765c-.109-.321-.163-.737-.163-1.247 0-.435.082-.791.248-1.07.165-.279.394-.489.687-.631a3.352 3.352 0 011.02-.29c.387-.052.841-.078 1.361-.078h1.898c.907 0 1.632.036 2.175.107.543.071.961.189 1.254.354.293.165.494.383.602.652.108.269.167.63.177 1.084h-2.72a.612.612 0 00-.156-.262.728.728 0 00-.305-.149 2.542 2.542 0 00-.559-.071 28.123 28.123 0 00-1.006-.014c-.803 0-1.315.029-1.537.085-.222.056-.333.208-.333.453 0 .161.101.272.305.333.203.062.645.092 1.325.092h1.885c.784 0 1.414.062 1.892.184.477.123.829.29 1.056.503.227.212.375.451.446.715.071.265.106.591.106.978 0 .491-.059.89-.177 1.197a1.436 1.436 0 01-.595.722c-.279.175-.664.3-1.155.376-.491.075-1.139.114-1.941.114h-2.579c-1.266 0-2.154-.172-2.664-.517-.51-.345-.765-.961-.765-1.849h2.803z" id="path50" filter="url(#filter33048)"/><path d="M251.37 80.762h2.635v1.077h.029c.198-.368.491-.659.878-.871.387-.212.945-.319 1.672-.319h.779c.841 0 1.518.071 2.034.213.515.142.904.345 1.169.609.264.264.441.576.531.935.09.359.135.799.135 1.318v1.304c0 .52-.045.959-.135 1.318-.09.359-.267.671-.531.935-.265.265-.654.468-1.169.609-.515.142-1.193.213-2.034.213h-.552a7.29 7.29 0 01-1.006-.057 2.42 2.42 0 01-.694-.198 1.667 1.667 0 01-.531-.404 3.398 3.398 0 01-.461-.702h-.028v3.769h-2.721zm2.72 3.967c0 .52.13.871.39 1.056.26.184.678.276 1.254.276h1.431c.604 0 .994-.097 1.169-.291.175-.193.262-.517.262-.971v-.85c0-.453-.088-.777-.262-.971-.175-.193-.565-.29-1.169-.29h-1.431c-.576 0-.994.092-1.254.276-.26.184-.39.536-.39 1.056z" id="path52" filter="url(#filter33016)"/><path d="M262.733 83.511c0-.567.085-1.039.255-1.417a2.19 2.19 0 01.687-.886c.288-.213.604-.359.949-.439a4.85 4.85 0 011.098-.12h4.067c.387 0 .753.04 1.098.12.345.081.661.227.949.439.288.212.517.508.687.886.17.378.255.85.255 1.417v1.729c0 .567-.085 1.039-.255 1.417a2.19 2.19 0 01-.687.886 2.562 2.562 0 01-.949.439 4.85 4.85 0 01-1.098.12h-4.067c-.387 0-.754-.04-1.098-.12a2.555 2.555 0 01-.949-.439 2.18 2.18 0 01-.687-.886c-.17-.378-.255-.85-.255-1.417zm2.721 1.204c0 .501.146.85.439 1.049.293.198.765.298 1.417.298h.652c.453 0 .815-.019 1.084-.057.269-.038.477-.099.624-.184a.684.684 0 00.305-.347c.057-.146.085-.347.085-.602v-.992a1.77 1.77 0 00-.085-.609.675.675 0 00-.305-.354c-.146-.085-.354-.144-.624-.177a9.317 9.317 0 00-1.084-.05h-.652c-.652 0-1.124.099-1.417.298-.293.199-.439.548-.439 1.049z" id="path54" filter="url(#filter32984)"/><path d="M274.465 80.762h2.721v1.162h.028c.227-.482.572-.815 1.034-.999.463-.184 1.082-.276 1.856-.276.567 0 1.063.026 1.488.078.425.052.834.177 1.226.376.392.198.711.52.956.963.246.444.368 1.034.368 1.771v4.152h-2.72v-4.152c0-.708-.586-1.063-1.757-1.063h-.624c-.586 0-1.041.135-1.367.404-.326.269-.489.659-.489 1.169v3.642h-2.721v-7.227z" id="path56" filter="url(#filter33000)"/><path d="M288.55 85.735c0 .113.016.208.049.283.033.075.106.142.22.198.113.057.286.102.517.135.231.033.532.05.9.05h.964c.652 0 1.084-.036 1.297-.107.212-.071.319-.215.319-.432s-.08-.37-.241-.461c-.161-.09-.472-.134-.935-.134h-2.551c-.652-.01-1.186-.055-1.601-.135-.416-.08-.746-.215-.992-.404a1.567 1.567 0 01-.531-.765c-.109-.321-.163-.737-.163-1.247 0-.435.082-.791.248-1.07.165-.279.394-.489.687-.631a3.352 3.352 0 011.02-.29c.387-.052.841-.078 1.361-.078h1.898c.907 0 1.632.036 2.175.107.543.071.961.189 1.254.354.293.165.494.383.602.652.108.269.167.63.177 1.084h-2.72a.612.612 0 00-.156-.262.728.728 0 00-.305-.149 2.542 2.542 0 00-.559-.071 28.123 28.123 0 00-1.006-.014c-.803 0-1.316.029-1.537.085-.222.056-.333.208-.333.453 0 .161.101.272.305.333.203.062.645.092 1.325.092h1.885c.784 0 1.414.062 1.892.184.477.123.829.29 1.056.503.227.212.375.451.446.715.071.265.106.591.106.978 0 .491-.059.89-.177 1.197a1.436 1.436 0 01-.595.722c-.279.175-.664.3-1.155.376-.491.075-1.139.114-1.941.114h-2.579c-1.266 0-2.154-.172-2.664-.517-.51-.345-.765-.961-.765-1.849h2.803z" id="path58" filter="url(#filter32968)"/><path d="M300.097 79.855h-2.72V77.73h2.72zm0 8.133h-2.72v-7.226h2.72z" id="path60" filter="url(#filter32920)"/><path d="M301.274 80.762h2.962l2.21 5.101 2.21-5.101h2.961l-3.471 7.226h-3.401z" id="path62" filter="url(#filter32952)"/><path d="M312.298 83.978c0-.661.078-1.212.234-1.651.156-.439.38-.779.673-1.02.293-.241.64-.411 1.042-.51a5.857 5.857 0 011.396-.149h1.899c.755 0 1.386.048 1.891.142.505.094.919.255 1.24.482.321.227.56.541.716.942.156.402.234.919.234 1.551v1.219h-6.603v.439c0 .368.13.624.39.765.26.142.687.213 1.282.213h.836c.359 0 .642-.021.85-.064.208-.042.361-.101.461-.177a.513.513 0 00.191-.248c.028-.089.042-.2.042-.333h2.55v.312c0 .435-.09.799-.269 1.091-.18.293-.432.52-.758.68a3.872 3.872 0 01-1.126.34 9.381 9.381 0 01-1.431.099h-2.04c-.52 0-.99-.038-1.41-.114a2.961 2.961 0 01-1.155-.468c-.349-.236-.626-.586-.829-1.049-.203-.463-.305-1.063-.305-1.8v-.692zm6.688-.609c0-.425-.127-.702-.383-.829-.255-.128-.789-.192-1.601-.192-.473 0-.834.014-1.084.042-.25.029-.442.076-.574.142a.489.489 0 00-.262.291 1.82 1.82 0 00-.064.546z" id="path64" filter="url(#filter32936)"/><path d="M329.287 77.729h3.443l4.01 7.623 4.01-7.623h3.443l-5.512 10.259h-3.883z" id="path66" fill="#e52d27"/><path d="M347.551 79.855h-2.72V77.73h2.72zm0 8.133h-2.72v-7.226h2.72z" id="path68" fill="#e52d27"/><path d="M349.393 83.723c0-.519.045-.959.135-1.318.09-.359.267-.671.531-.935s.654-.468 1.169-.609c.515-.142 1.193-.213 2.033-.213h.808c.302 0 .586.024.85.071.264.047.51.125.737.234.227.109.416.258.567.446.151.189.245.421.283.695h.028V77.73h2.72v10.259h-2.55v-1.332h-.028a1.957 1.957 0 01-.843 1.077c-.402.246-.994.369-1.778.369h-.793c-.841 0-1.518-.071-2.033-.213-.515-.142-.905-.345-1.169-.609a1.965 1.965 0 01-.531-.935c-.09-.359-.135-.798-.135-1.318v-1.305zm2.635 1.077c0 .454.087.777.262.971.175.194.565.291 1.169.291h1.601c.576 0 .994-.092 1.254-.276.26-.184.39-.536.39-1.056v-.708c0-.52-.13-.871-.39-1.056-.26-.184-.678-.276-1.254-.276h-1.601c-.604 0-.994.097-1.169.29-.175.194-.262.517-.262.971z" id="path70" fill="#e52d27"/><path d="M360.785 83.978c0-.661.078-1.212.234-1.651.156-.439.38-.779.673-1.02.293-.241.64-.411 1.042-.51a5.857 5.857 0 011.396-.149h1.899c.755 0 1.386.048 1.891.142.505.094.919.255 1.24.482.321.227.56.541.716.942.156.402.234.919.234 1.551v1.219h-6.603v.439c0 .368.13.624.39.765.26.142.687.213 1.282.213h.836c.359 0 .642-.021.85-.064.208-.042.361-.101.461-.177a.513.513 0 00.191-.248c.028-.089.042-.2.042-.333h2.55v.312c0 .435-.09.799-.269 1.091-.18.293-.432.52-.758.68a3.872 3.872 0 01-1.126.34 9.381 9.381 0 01-1.431.099h-2.041c-.52 0-.99-.038-1.41-.114a2.961 2.961 0 01-1.155-.468c-.349-.236-.626-.586-.829-1.049-.203-.463-.305-1.063-.305-1.8zm6.688-.609c0-.425-.127-.702-.383-.829-.255-.128-.789-.192-1.601-.192-.473 0-.834.014-1.084.042-.25.029-.442.076-.574.142a.489.489 0 00-.262.291 1.82 1.82 0 00-.064.546z" id="path72" fill="#e52d27"/><path d="M371.455 83.511c0-.567.085-1.039.255-1.417a2.19 2.19 0 01.687-.886c.288-.213.604-.359.949-.439a4.85 4.85 0 011.098-.12h4.067c.387 0 .753.04 1.098.12.345.081.661.227.949.439.288.212.517.508.687.886.17.378.255.85.255 1.417v1.729c0 .567-.085 1.039-.255 1.417a2.19 2.19 0 01-.687.886 2.562 2.562 0 01-.949.439 4.85 4.85 0 01-1.098.12h-4.067c-.387 0-.754-.04-1.098-.12a2.555 2.555 0 01-.949-.439 2.18 2.18 0 01-.687-.886c-.17-.378-.255-.85-.255-1.417zm2.72 1.204c0 .501.146.85.439 1.049.293.198.765.298 1.417.298h.652c.453 0 .815-.019 1.084-.057.269-.038.477-.099.624-.184a.684.684 0 00.305-.347c.057-.146.085-.347.085-.602v-.992a1.77 1.77 0 00-.085-.609.675.675 0 00-.305-.354c-.146-.085-.354-.144-.624-.177a9.317 9.317 0 00-1.084-.05h-.652c-.652 0-1.124.099-1.417.298-.293.199-.439.548-.439 1.049z" id="path74" fill="#e52d27"/><path d="M390.314 77.729h11.222v2.381h-8.077v1.644h7.651v2.125h-7.651v1.644h8.261v2.466h-11.406z" id="path76" filter="url(#filter32904)"/><path d="M403.364 80.762h2.593v1.417h.028c.066-.5.312-.881.737-1.141s.982-.39 1.672-.39h1.034c1.275 0 2.168.562 2.678 1.686.227-.652.52-1.096.878-1.332.359-.236.926-.354 1.7-.354h.836c1.199 0 2.062.276 2.586.829.524.553.786 1.368.786 2.444v4.067h-2.72v-3.883c0-.264-.024-.479-.071-.645a.729.729 0 00-.255-.39c-.246-.198-.751-.298-1.516-.298-.671 0-1.146.09-1.424.269-.279.179-.418.5-.418.963v3.982h-2.721v-4.095c0-.236-.026-.425-.078-.567a.62.62 0 00-.291-.333 1.656 1.656 0 00-.588-.17 8.118 8.118 0 00-1.013-.05c-.604 0-1.041.099-1.311.298-.269.198-.404.567-.404 1.105v3.811h-2.72v-7.223z" id="path78" filter="url(#filter32888)"/><path d="M420.636 77.729h2.721v4.364h.028a1.4 1.4 0 01.283-.695c.151-.189.338-.338.56-.446.222-.108.468-.186.737-.234.269-.048.555-.071.857-.071h.807c.841 0 1.518.071 2.034.213.515.142.904.345 1.169.609.264.264.441.576.531.935.09.359.135.799.135 1.318v1.304c0 .52-.045.959-.135 1.318-.09.359-.267.671-.531.935-.265.265-.654.468-1.169.609-.515.142-1.193.213-2.034.213h-.793c-.784 0-1.377-.123-1.778-.369a1.95 1.95 0 01-.843-1.077h-.029v1.332h-2.55zm2.551 7c0 .52.13.871.39 1.056.26.184.677.276 1.254.276h1.601c.604 0 .994-.097 1.169-.291.175-.193.262-.517.262-.971v-.85c0-.453-.087-.777-.262-.971-.175-.193-.565-.29-1.169-.29h-1.601c-.576 0-.994.092-1.254.276-.26.184-.39.536-.39 1.056z" id="path80" filter="url(#filter32872)"/><path d="M431.844 83.978c0-.661.078-1.212.234-1.651.156-.439.38-.779.673-1.02.293-.241.64-.411 1.042-.51a5.857 5.857 0 011.396-.149h1.899c.755 0 1.386.048 1.891.142.505.094.919.255 1.24.482.321.227.56.541.716.942.156.402.234.919.234 1.551v1.219h-6.603v.439c0 .368.13.624.39.765.26.142.687.213 1.282.213h.836c.359 0 .642-.021.85-.064.208-.042.361-.101.461-.177a.513.513 0 00.191-.248c.028-.089.042-.2.042-.333h2.55v.312c0 .435-.09.799-.269 1.091-.18.293-.432.52-.758.68a3.872 3.872 0 01-1.126.34 9.381 9.381 0 01-1.431.099h-2.04c-.52 0-.99-.038-1.41-.114a2.961 2.961 0 01-1.155-.468c-.349-.236-.626-.586-.829-1.049-.203-.463-.305-1.063-.305-1.8v-.692zm6.688-.609c0-.425-.127-.702-.383-.829-.255-.128-.789-.192-1.601-.192-.473 0-.834.014-1.084.042-.25.029-.442.076-.574.142a.489.489 0 00-.262.291 1.82 1.82 0 00-.064.546z" id="path82" filter="url(#filter32856)"/><path d="M442.514 83.723c0-.519.045-.959.135-1.318.09-.359.267-.671.531-.935s.654-.468 1.169-.609c.515-.142 1.193-.213 2.033-.213h.808c.302 0 .586.024.85.071.264.047.51.125.737.234.227.109.416.258.567.446.151.189.245.421.283.695h.028V77.73h2.72v10.259h-2.55v-1.332h-.028a1.957 1.957 0 01-.843 1.077c-.402.246-.994.369-1.778.369h-.793c-.841 0-1.518-.071-2.033-.213-.515-.142-.905-.345-1.169-.609a1.965 1.965 0 01-.531-.935c-.09-.359-.135-.798-.135-1.318v-1.305zm2.635 1.077c0 .454.087.777.262.971.175.194.565.291 1.169.291h1.601c.576 0 .994-.092 1.254-.276.26-.184.39-.536.39-1.056v-.708c0-.52-.13-.871-.39-1.056-.26-.184-.678-.276-1.254-.276h-1.601c-.604 0-.994.097-1.169.29-.175.194-.262.517-.262.971z" id="path84" filter="url(#filter32840)"/><path d="M454.062 83.723c0-.519.045-.959.135-1.318.09-.359.267-.671.531-.935s.654-.468 1.169-.609c.515-.142 1.193-.213 2.033-.213h.808c.302 0 .586.024.85.071.264.047.51.125.737.234.227.109.416.258.567.446.151.189.245.421.283.695h.028V77.73h2.72v10.259h-2.55v-1.332h-.028a1.957 1.957 0 01-.843 1.077c-.402.246-.994.369-1.778.369h-.793c-.841 0-1.518-.071-2.033-.213-.515-.142-.905-.345-1.169-.609a1.965 1.965 0 01-.531-.935c-.09-.359-.135-.798-.135-1.318v-1.305zm2.635 1.077c0 .454.088.777.262.971.175.194.565.291 1.169.291h1.601c.576 0 .994-.092 1.254-.276.26-.184.39-.536.39-1.056v-.708c0-.52-.13-.871-.39-1.056-.26-.184-.678-.276-1.254-.276h-1.601c-.604 0-.994.097-1.169.29-.175.194-.262.517-.262.971z" id="path86" filter="url(#filter32824)"/><path d="M465.454 83.978c0-.661.078-1.212.234-1.651.156-.439.38-.779.673-1.02.293-.241.64-.411 1.042-.51a5.857 5.857 0 011.396-.149h1.899c.755 0 1.386.048 1.891.142.505.094.919.255 1.24.482.321.227.56.541.716.942.156.402.234.919.234 1.551v1.219h-6.603v.439c0 .368.13.624.39.765.26.142.687.213 1.282.213h.836c.359 0 .642-.021.85-.064.208-.042.361-.101.461-.177a.513.513 0 00.191-.248c.028-.089.042-.2.042-.333h2.551v.312c0 .435-.09.799-.269 1.091-.18.293-.432.52-.758.68a3.872 3.872 0 01-1.126.34 9.381 9.381 0 01-1.431.099h-2.04c-.52 0-.99-.038-1.41-.114a2.955 2.955 0 01-1.155-.468c-.349-.236-.626-.586-.829-1.049-.203-.463-.305-1.063-.305-1.8v-.692zm6.688-.609c0-.425-.127-.702-.383-.829-.255-.128-.789-.192-1.601-.192-.473 0-.834.014-1.084.042-.25.029-.442.076-.574.142a.489.489 0 00-.262.291 1.82 1.82 0 00-.064.546z" id="path88" filter="url(#filter32808)"/><path d="M476.307 80.762h2.551v1.374h.029c.142-.539.448-.921.921-1.148.472-.227 1.049-.34 1.729-.34.982 0 1.688.224 2.118.673.43.448.645 1.174.645 2.175 0 .104 0 .269-.014.496a.822.822 0 00-.014.142h-2.352c0-.491-.088-.841-.262-1.049-.175-.208-.522-.312-1.042-.312-.491 0-.878.099-1.162.298-.283.198-.425.506-.425.921v3.996h-2.721v-7.226z" id="path90" filter="url(#filter32792)"/><g id="g98" transform="translate(-557.291 -552.87)" filter="url(#filter32776)"><g id="g96"><path id="rect94" d="M670.496 645.63h372.214v1.5H670.496z"/></g></g><path id="path104" d="M0 0v94.219h94.219V0zm69.557 53.611l-38 21.635c-4.582 2.609-8.331.429-8.331-4.844v-43.07c0-5.273 3.749-7.452 8.331-4.844l38 21.635c4.582 2.61 4.582 6.879 0 9.488z" fill="#e52d27"/><g id="g116" transform="translate(-557.291 -552.87)" fill="#e52d27"><path id="path106" d="M589.951 590.727h-6.035c-2.84 0-2.84 4.404 0 4.404h6.035c2.84 0 2.84-4.404 0-4.404z"/><path id="path108" d="M589.951 599.535h-6.035c-2.84 0-2.84 4.404 0 4.404h6.035c2.84.001 2.84-4.404 0-4.404z"/><path id="path110" d="M589.951 617.153h-6.035c-2.84 0-2.84 4.404 0 4.404h6.035c2.84 0 2.84-4.404 0-4.404z"/><path id="path112" d="M589.951 608.344h-6.035c-2.84 0-2.84 4.404 0 4.404h6.035c2.84 0 2.84-4.404 0-4.404z"/><path id="path114" d="M589.951 581.918h-6.035c-2.84 0-2.84 4.404 0 4.404h6.035c2.84 0 2.84-4.404 0-4.404z"/></g><path id="path118" d="M59.488 23.077c-4.233-7.136-12.023-12.005-20.783-12.005-13.16 0-24.142 10.982-24.142 24.142 0 3.537.798 6.913 2.214 9.964-4.157 4.353-6.741 10.214-6.741 16.592 0 13.16 10.982 24.142 24.142 24.142.474 0 .943-.019 1.411-.047l-4.873-4.844-5.805-5.805.011-.006c1.524 1.448 3.931 1.587 6.636.047l38-21.635c2.797-1.593 3.877-3.803 3.259-5.878l.005-.003 4.581 4.604 1.834 1.787a23.543 23.543 0 001.113-7.149c-.001-12.049-9.208-22.265-20.862-23.906z" fill="none"/><g id="g127" transform="translate(-557.291 -552.87)"><linearGradient y2="637.092" x2="624.363" y1="748.505" x1="692.527" gradientUnits="userSpaceOnUse" id="SVGID_1_"><stop id="stop120" offset="0" stop-color="#231f20" stop-opacity="0"/><stop id="stop122" offset="1" stop-color="#231f20"/></linearGradient><path id="path125" d="M636.527 607.001l-1.834-1.787-4.581-4.604-.005.003c.618 2.075-.462 4.285-3.259 5.878l-38 21.635c-2.704 1.54-5.111 1.401-6.636-.047l-.011.006 5.805 5.805 4.873 4.844 8.511 8.395 50.118-.041v-25.532z" opacity=".4" fill="url(#SVGID_1_)"/></g></svg>