<svg xmlns="http://www.w3.org/2000/svg" width="1605.052" height="451.271" viewBox="0 0 1605.0518 451.27112" enable-background="new 0 0 1600 1200"><defs><filter id="a" color-interpolation-filters="sRGB"><feColorMatrix type="hueRotate" values="180" result="color1"/><feColorMatrix values="-1 0 0 0 1 0 -1 0 0 1 0 0 -1 0 1 -0.21 -0.72 -0.07 2 0" result="fbSourceGraphic"/><feColorMatrix result="fbSourceGraphicAlpha" in="fbSourceGraphic" values="0 0 0 -1 0 0 0 0 -1 0 0 0 0 -1 0 0 0 0 1 0"/><feColorMatrix type="hueRotate" values="180" result="color1" in="fbSourceGraphic"/><feColorMatrix values="-1 0 0 0 1 0 -1 0 0 1 0 0 -1 0 1 -0.21 -0.72 -0.07 2 0" result="fbSourceGraphic"/><feColorMatrix result="fbSourceGraphicAlpha" in="fbSourceGraphic" values="0 0 0 -1 0 0 0 0 -1 0 0 0 0 -1 0 0 0 0 1 0"/><feColorMatrix type="hueRotate" values="180" result="color1" in="fbSourceGraphic"/><feColorMatrix values="-1 0 0 0 1 0 -1 0 0 1 0 0 -1 0 1 -0.21 -0.72 -0.07 2 0" result="fbSourceGraphic"/><feColorMatrix result="fbSourceGraphicAlpha" in="fbSourceGraphic" values="0 0 0 -1 0 0 0 0 -1 0 0 0 0 -1 0 0 0 0 1 0"/><feGaussianBlur stdDeviation=".2" result="blur" in="fbSourceGraphic"/><feComposite in2="blur" in="fbSourceGraphic" operator="in" result="composite1"/><feComposite in2="composite1" in="composite1" k2="1" operator="in" result="composite2"/></filter></defs><path d="M690.578 582.144l-20.034 37.002h22.703l19.212-37.002zm36.389 0l5.825 11.005 13.915 25.997h22.611l-20.341-37.002z" transform="translate(-2753.213 -2264.95) scale(4.15098)" filter="url(#a)"/><path d="M732.672 552.87h-26.456l-8.326 15.379h43.236z" transform="translate(-2753.213 -2264.95) scale(4.15098)" fill="#e52d27" filter="url(#a)"/><path d="M837.311 583.811c-1.16 1.099-3.083 1.648-5.767 1.648h-33.596v-3.315h-20.322v37.002h20.322v-17.21h31.948c3.173 0 5.355.672 6.545 2.014 1.19 1.343 1.785 3.753 1.785 7.232v7.964h20.322v-11.26c0-2.623-.274-4.836-.824-6.637-.549-1.799-1.327-3.218-2.334-4.257a11.19 11.19 0 0 0-3.433-2.426c-1.282-.579-2.778-1.021-4.485-1.327v-.183c4.454-1.037 7.461-2.822 9.017-5.355.905-1.472 1.538-3.333 1.917-5.558h-19.978c-.28.665-.649 1.224-1.117 1.668z" transform="translate(-2753.213 -2264.95) scale(4.15098)" filter="url(#a)"/><path d="M857.65 564.313c-.641-2.38-1.709-4.424-3.204-6.133-1.496-1.708-3.524-3.021-6.087-3.936-2.563-.916-5.767-1.373-9.612-1.373h-61.333v15.379h80.965a27.002 27.002 0 0 0-.729-3.937z" transform="translate(-2753.213 -2264.95) scale(4.15098)" fill="#e52d27" filter="url(#a)"/><path d="M913.006 602.12l-10.507-19.976h-21.915l19.882 37.002h25.082l19.881-37.002h-21.915z" transform="translate(-2753.213 -2264.95) scale(4.15098)" filter="url(#a)"/><path d="M938.913 552.87l-8.09 15.379h22.071l8.263-15.379zm-74.057 0l8.263 15.379h22.071l-8.09-15.379zm176.126 0H968.48v15.379h72.502z" transform="translate(-2753.213 -2264.95) scale(4.15098)" fill="#e52d27" filter="url(#a)"/><path d="M968.48 619.146h73.691v-15.928h-53.368v-10.619h49.432v-10.455H968.48z" transform="translate(-2753.213 -2264.95) scale(4.15098)" filter="url(#a)"/><g transform="translate(-2753.213 -2264.95) scale(4.15098)" filter="url(#a)"><path d="M670.496 625.799h372.214v1.5H670.496z"/><path d="M677.169 630.599h4.095l5.639 10.259h-3.5l-.978-1.814h-6.376l-.921 1.814h-3.514zm.057 6.235h4.024l-2.04-3.854zm10.485-.241c0-.519.045-.959.135-1.318.09-.359.267-.671.531-.935s.654-.468 1.169-.609c.515-.142 1.193-.213 2.033-.213h.808c.302 0 .586.024.85.071.264.047.51.125.737.234.227.109.416.258.567.446.151.189.245.421.283.695h.028V630.6h2.72v10.259h-2.55v-1.332h-.028a1.957 1.957 0 0 1-.843 1.077c-.402.246-.994.369-1.778.369h-.793c-.841 0-1.518-.071-2.033-.213-.515-.142-.905-.345-1.169-.609a1.965 1.965 0 0 1-.531-.935c-.09-.359-.135-.798-.135-1.318v-1.305zm2.636 1.077c0 .454.088.777.262.971.175.194.565.291 1.169.291h1.601c.576 0 .994-.092 1.254-.276.26-.184.39-.536.39-1.056v-.708c0-.52-.13-.871-.39-1.056-.26-.184-.678-.276-1.254-.276h-1.601c-.604 0-.994.097-1.169.29-.175.194-.262.517-.262.971zm8.246-4.038h2.962l2.21 5.101 2.21-5.101h2.961l-3.471 7.226h-3.401zm10.911 4.69c0-.482.082-.864.248-1.148.165-.283.411-.491.737-.624a4.032 4.032 0 0 1 1.176-.255 23.269 23.269 0 0 1 1.835-.057c.841 0 1.462.033 1.863.099.402.066.725.227.971.481v-.637c0-.368-.083-.621-.248-.758-.166-.137-.508-.205-1.027-.205h-1.601c-.416 0-.692.036-.829.107-.137.071-.21.229-.22.474h-2.635c0-.482.062-.874.184-1.176a1.42 1.42 0 0 1 .574-.694c.26-.161.588-.269.984-.326.397-.056.902-.085 1.516-.085h3.16c.935 0 1.646.22 2.133.659.486.439.73 1.084.73 1.934v4.747h-2.579v-.822a5.636 5.636 0 0 1-.517.489c-.147.118-.3.21-.461.276-.161.066-.35.111-.567.135a8.353 8.353 0 0 1-.85.036h-1.856c-.916 0-1.599-.146-2.047-.439-.449-.293-.673-.831-.673-1.615v-.596zm4.845.949c.463 0 .829-.016 1.098-.05.269-.033.472-.082.609-.149.137-.066.227-.142.269-.227a.771.771 0 0 0 .064-.34c0-.293-.099-.489-.298-.588-.198-.099-.652-.149-1.36-.149h-1.204c-.548 0-.916.064-1.105.191-.189.127-.283.347-.283.659 0 .237.106.404.319.503.212.099.583.149 1.112.149h.779zm6.448-5.639h2.721v1.162h.028c.227-.482.572-.815 1.034-.999.463-.184 1.082-.276 1.856-.276.567 0 1.063.026 1.488.078.425.052.834.177 1.226.376.392.198.711.52.956.963.246.444.368 1.034.368 1.771v4.152h-2.72v-4.152c0-.708-.586-1.063-1.757-1.063h-.624c-.586 0-1.041.135-1.367.404-.326.269-.489.659-.489 1.169v3.642h-2.721v-7.227zm11.207 3.216c0-.661.078-1.212.234-1.651.156-.439.38-.779.673-1.02.293-.241.64-.411 1.042-.51a5.857 5.857 0 0 1 1.396-.149h3.061c1.039 0 1.839.196 2.402.588.562.392.843.994.843 1.807v.652h-2.635c0-.368-.116-.628-.347-.78-.232-.151-.64-.227-1.226-.227h-1.049c-.576 0-.999.088-1.268.262-.269.175-.404.456-.404.843v.963c0 .444.125.758.375.942.25.184.607.276 1.07.276h1.389c.434 0 .786-.064 1.056-.191.269-.127.404-.342.404-.645v-.17h2.635v.637c0 .463-.088.857-.262 1.183a2.016 2.016 0 0 1-.715.772 3.26 3.26 0 0 1-1.013.411 5.316 5.316 0 0 1-1.183.128h-2.777c-.52 0-.99-.038-1.41-.114a2.961 2.961 0 0 1-1.155-.468c-.349-.236-.626-.586-.829-1.049-.203-.463-.305-1.063-.305-1.8v-.69zm10.84 0c0-.661.078-1.212.234-1.651.156-.439.38-.779.673-1.02.293-.241.64-.411 1.042-.51a5.857 5.857 0 0 1 1.396-.149h1.899c.755 0 1.386.048 1.891.142.505.094.919.255 1.24.482.321.227.56.541.716.942.156.402.234.919.234 1.551v1.219h-6.603v.439c0 .368.13.624.39.765.26.142.687.213 1.282.213h.836c.359 0 .642-.021.85-.064.208-.042.361-.101.461-.177a.513.513 0 0 0 .191-.248c.028-.089.042-.2.042-.333h2.55v.312c0 .435-.09.799-.269 1.091-.18.293-.432.52-.758.68a3.872 3.872 0 0 1-1.126.34 9.381 9.381 0 0 1-1.431.099h-2.04c-.52 0-.99-.038-1.41-.114a2.961 2.961 0 0 1-1.155-.468c-.349-.236-.626-.586-.829-1.049-.203-.463-.305-1.063-.305-1.8v-.692zm6.688-.609c0-.425-.127-.702-.383-.829-.255-.128-.789-.192-1.601-.192-.473 0-.834.014-1.084.042-.25.029-.442.076-.574.142a.489.489 0 0 0-.262.291 1.82 1.82 0 0 0-.064.546zm3.982.354c0-.519.045-.959.135-1.318.09-.359.267-.671.531-.935s.654-.468 1.169-.609c.515-.142 1.193-.213 2.033-.213h.808c.302 0 .586.024.85.071.264.047.51.125.737.234.227.109.416.258.567.446.151.189.245.421.283.695h.028V630.6h2.72v10.259h-2.55v-1.332h-.028a1.957 1.957 0 0 1-.843 1.077c-.402.246-.994.369-1.778.369h-.793c-.841 0-1.518-.071-2.033-.213-.515-.142-.905-.345-1.169-.609a1.965 1.965 0 0 1-.531-.935c-.09-.359-.135-.798-.135-1.318v-1.305zm2.635 1.077c0 .454.087.777.262.971.175.194.565.291 1.169.291h1.601c.576 0 .994-.092 1.254-.276.26-.184.39-.536.39-1.056v-.708c0-.52-.13-.871-.39-1.056-.26-.184-.678-.276-1.254-.276h-1.601c-.604 0-.994.097-1.169.29-.175.194-.262.517-.262.971z" fill="#e52d27"/><path d="M772.373 630.599h9.493c.595 0 1.091.071 1.488.213.397.142.711.345.942.609.231.264.397.581.496.949.099.368.149.793.149 1.275v.652c0 .737-.12 1.301-.361 1.693-.241.392-.706.669-1.396.829v.029c.264.047.496.116.694.205.198.09.376.215.531.376.156.161.276.38.361.659.085.279.128.621.128 1.027v1.743h-3.146v-1.233c0-.539-.092-.911-.276-1.119-.184-.208-.522-.312-1.013-.312h-4.945v2.664h-3.145zm3.145 5.045h5.2c.416 0 .713-.085.893-.255.179-.17.269-.444.269-.822v-.34c0-.434-.109-.722-.326-.864-.217-.142-.59-.213-1.119-.213h-4.917zm11.081 1.204c0-.661.078-1.212.234-1.651.156-.439.38-.779.673-1.02.293-.241.64-.411 1.042-.51a5.857 5.857 0 0 1 1.396-.149h1.899c.755 0 1.386.048 1.891.142.505.094.919.255 1.24.482.321.227.56.541.716.942.156.402.234.919.234 1.551v1.219h-6.603v.439c0 .368.13.624.39.765.26.142.687.213 1.282.213h.836c.359 0 .642-.021.85-.064.208-.042.361-.101.461-.177a.513.513 0 0 0 .191-.248c.028-.089.042-.2.042-.333h2.551v.312c0 .435-.09.799-.269 1.091-.18.293-.432.52-.758.68a3.872 3.872 0 0 1-1.126.34 9.381 9.381 0 0 1-1.431.099h-2.04c-.52 0-.99-.038-1.41-.114a2.955 2.955 0 0 1-1.155-.468c-.349-.236-.626-.586-.829-1.049-.203-.463-.305-1.063-.305-1.8v-.692zm6.688-.609c0-.425-.127-.702-.383-.829-.255-.128-.789-.192-1.601-.192-.473 0-.834.014-1.084.042-.25.029-.442.076-.574.142a.489.489 0 0 0-.262.291 1.82 1.82 0 0 0-.064.546zm6.702 2.366c0 .113.016.208.049.283.033.075.106.142.22.198.113.057.286.102.517.135.231.033.532.05.9.05h.964c.652 0 1.084-.036 1.296-.107.212-.071.319-.215.319-.432s-.08-.37-.241-.461c-.161-.09-.472-.134-.935-.134h-2.55c-.652-.01-1.186-.055-1.601-.135-.416-.08-.746-.215-.992-.404a1.567 1.567 0 0 1-.531-.765c-.109-.321-.163-.737-.163-1.247 0-.435.082-.791.248-1.07.165-.279.394-.489.687-.631a3.352 3.352 0 0 1 1.02-.29c.387-.052.841-.078 1.361-.078h1.898c.907 0 1.632.036 2.175.107.543.071.961.189 1.254.354.293.165.494.383.602.652.108.269.167.63.177 1.084h-2.72a.612.612 0 0 0-.156-.262.728.728 0 0 0-.305-.149 2.542 2.542 0 0 0-.559-.071 28.123 28.123 0 0 0-1.006-.014c-.803 0-1.315.029-1.537.085-.222.056-.333.208-.333.453 0 .161.101.272.305.333.203.062.645.092 1.325.092h1.885c.784 0 1.414.062 1.892.184.477.123.829.29 1.056.503.227.212.375.451.446.715.071.265.106.591.106.978 0 .491-.059.89-.177 1.197a1.436 1.436 0 0 1-.595.722c-.279.175-.664.3-1.155.376-.491.075-1.139.114-1.941.114h-2.579c-1.266 0-2.154-.172-2.664-.517-.51-.345-.765-.961-.765-1.849h2.803zm8.672-4.973h2.635v1.077h.029c.198-.368.491-.659.878-.871.387-.212.945-.319 1.672-.319h.779c.841 0 1.518.071 2.034.213.515.142.904.345 1.169.609.264.264.441.576.531.935.09.359.135.799.135 1.318v1.304c0 .52-.045.959-.135 1.318-.09.359-.267.671-.531.935-.265.265-.654.468-1.169.609-.515.142-1.193.213-2.034.213h-.552a7.29 7.29 0 0 1-1.006-.057 2.42 2.42 0 0 1-.694-.198 1.667 1.667 0 0 1-.531-.404 3.398 3.398 0 0 1-.461-.702h-.028v3.769h-2.721zm2.72 3.967c0 .52.13.871.39 1.056.26.184.678.276 1.254.276h1.431c.604 0 .994-.097 1.169-.291.175-.193.262-.517.262-.971v-.85c0-.453-.088-.777-.262-.971-.175-.193-.565-.29-1.169-.29h-1.431c-.576 0-.994.092-1.254.276-.26.184-.39.536-.39 1.056zm8.643-1.218c0-.567.085-1.039.255-1.417a2.19 2.19 0 0 1 .687-.886c.288-.213.604-.359.949-.439a4.85 4.85 0 0 1 1.098-.12h4.067c.387 0 .753.04 1.098.12.345.081.661.227.949.439.288.212.517.508.687.886.17.378.255.85.255 1.417v1.729c0 .567-.085 1.039-.255 1.417a2.19 2.19 0 0 1-.687.886 2.562 2.562 0 0 1-.949.439 4.85 4.85 0 0 1-1.098.12h-4.067c-.387 0-.754-.04-1.098-.12a2.555 2.555 0 0 1-.949-.439 2.18 2.18 0 0 1-.687-.886c-.17-.378-.255-.85-.255-1.417zm2.721 1.204c0 .501.146.85.439 1.049.293.198.765.298 1.417.298h.652c.453 0 .815-.019 1.084-.057.269-.038.477-.099.624-.184a.684.684 0 0 0 .305-.347c.057-.146.085-.347.085-.602v-.992a1.77 1.77 0 0 0-.085-.609.675.675 0 0 0-.305-.354c-.146-.085-.354-.144-.624-.177a9.317 9.317 0 0 0-1.084-.05h-.652c-.652 0-1.124.099-1.417.298-.293.199-.439.548-.439 1.049zm9.011-3.953h2.721v1.162h.028c.227-.482.572-.815 1.034-.999.463-.184 1.082-.276 1.856-.276.567 0 1.063.026 1.488.078.425.052.834.177 1.226.376.392.198.711.52.956.963.246.444.368 1.034.368 1.771v4.152h-2.72v-4.152c0-.708-.586-1.063-1.757-1.063h-.624c-.586 0-1.041.135-1.367.404-.326.269-.489.659-.489 1.169v3.642h-2.721v-7.227zm14.085 4.973c0 .113.016.208.049.283.033.075.106.142.22.198.113.057.286.102.517.135.231.033.532.05.9.05h.964c.652 0 1.084-.036 1.297-.107.212-.071.319-.215.319-.432s-.08-.37-.241-.461c-.161-.09-.472-.134-.935-.134h-2.551c-.652-.01-1.186-.055-1.601-.135-.416-.08-.746-.215-.992-.404a1.567 1.567 0 0 1-.531-.765c-.109-.321-.163-.737-.163-1.247 0-.435.082-.791.248-1.07.165-.279.394-.489.687-.631a3.352 3.352 0 0 1 1.02-.29c.387-.052.841-.078 1.361-.078h1.898c.907 0 1.632.036 2.175.107.543.071.961.189 1.254.354.293.165.494.383.602.652.108.269.167.63.177 1.084h-2.72a.612.612 0 0 0-.156-.262.728.728 0 0 0-.305-.149 2.542 2.542 0 0 0-.559-.071 28.123 28.123 0 0 0-1.006-.014c-.803 0-1.316.029-1.537.085-.222.056-.333.208-.333.453 0 .161.101.272.305.333.203.062.645.092 1.325.092h1.885c.784 0 1.414.062 1.892.184.477.123.829.29 1.056.503.227.212.375.451.446.715.071.265.106.591.106.978 0 .491-.059.89-.177 1.197a1.436 1.436 0 0 1-.595.722c-.279.175-.664.3-1.155.376-.491.075-1.139.114-1.941.114h-2.579c-1.266 0-2.154-.172-2.664-.517-.51-.345-.765-.961-.765-1.849h2.803zm11.547-5.88h-2.72V630.6h2.72zm0 8.133h-2.72v-7.226h2.72zm1.177-7.226h2.962l2.21 5.101 2.21-5.101h2.961l-3.471 7.226h-3.401zm11.024 3.216c0-.661.078-1.212.234-1.651.156-.439.38-.779.673-1.02.293-.241.64-.411 1.042-.51a5.857 5.857 0 0 1 1.396-.149h1.899c.755 0 1.386.048 1.891.142.505.094.919.255 1.24.482.321.227.56.541.716.942.156.402.234.919.234 1.551v1.219h-6.603v.439c0 .368.13.624.39.765.26.142.687.213 1.282.213h.836c.359 0 .642-.021.85-.064.208-.042.361-.101.461-.177a.513.513 0 0 0 .191-.248c.028-.089.042-.2.042-.333h2.55v.312c0 .435-.09.799-.269 1.091-.18.293-.432.52-.758.68a3.872 3.872 0 0 1-1.126.34 9.381 9.381 0 0 1-1.431.099h-2.04c-.52 0-.99-.038-1.41-.114a2.961 2.961 0 0 1-1.155-.468c-.349-.236-.626-.586-.829-1.049-.203-.463-.305-1.063-.305-1.8v-.692zm6.688-.609c0-.425-.127-.702-.383-.829-.255-.128-.789-.192-1.601-.192-.473 0-.834.014-1.084.042-.25.029-.442.076-.574.142a.489.489 0 0 0-.262.291 1.82 1.82 0 0 0-.064.546z"/><path d="M886.578 630.599h3.443l4.01 7.623 4.01-7.623h3.443l-5.512 10.259h-3.883zm18.264 2.126h-2.72V630.6h2.72zm0 8.133h-2.72v-7.226h2.72zm1.842-4.265c0-.519.045-.959.135-1.318.09-.359.267-.671.531-.935s.654-.468 1.169-.609c.515-.142 1.193-.213 2.033-.213h.808c.302 0 .586.024.85.071.264.047.51.125.737.234.227.109.416.258.567.446.151.189.245.421.283.695h.028V630.6h2.72v10.259h-2.55v-1.332h-.028a1.957 1.957 0 0 1-.843 1.077c-.402.246-.994.369-1.778.369h-.793c-.841 0-1.518-.071-2.033-.213-.515-.142-.905-.345-1.169-.609a1.965 1.965 0 0 1-.531-.935c-.09-.359-.135-.798-.135-1.318v-1.305zm2.635 1.077c0 .454.087.777.262.971.175.194.565.291 1.169.291h1.601c.576 0 .994-.092 1.254-.276.26-.184.39-.536.39-1.056v-.708c0-.52-.13-.871-.39-1.056-.26-.184-.678-.276-1.254-.276h-1.601c-.604 0-.994.097-1.169.29-.175.194-.262.517-.262.971zm8.757-.822c0-.661.078-1.212.234-1.651.156-.439.38-.779.673-1.02.293-.241.64-.411 1.042-.51a5.857 5.857 0 0 1 1.396-.149h1.899c.755 0 1.386.048 1.891.142.505.094.919.255 1.24.482.321.227.56.541.716.942.156.402.234.919.234 1.551v1.219h-6.603v.439c0 .368.13.624.39.765.26.142.687.213 1.282.213h.836c.359 0 .642-.021.85-.064.208-.042.361-.101.461-.177a.513.513 0 0 0 .191-.248c.028-.089.042-.2.042-.333h2.55v.312c0 .435-.09.799-.269 1.091-.18.293-.432.52-.758.68a3.872 3.872 0 0 1-1.126.34 9.381 9.381 0 0 1-1.431.099h-2.041c-.52 0-.99-.038-1.41-.114a2.961 2.961 0 0 1-1.155-.468c-.349-.236-.626-.586-.829-1.049-.203-.463-.305-1.063-.305-1.8zm6.688-.609c0-.425-.127-.702-.383-.829-.255-.128-.789-.192-1.601-.192-.473 0-.834.014-1.084.042-.25.029-.442.076-.574.142a.489.489 0 0 0-.262.291 1.82 1.82 0 0 0-.064.546zm3.982.142c0-.567.085-1.039.255-1.417a2.19 2.19 0 0 1 .687-.886c.288-.213.604-.359.949-.439a4.85 4.85 0 0 1 1.098-.12h4.067c.387 0 .753.04 1.098.12.345.081.661.227.949.439.288.212.517.508.687.886.17.378.255.85.255 1.417v1.729c0 .567-.085 1.039-.255 1.417a2.19 2.19 0 0 1-.687.886 2.562 2.562 0 0 1-.949.439 4.85 4.85 0 0 1-1.098.12h-4.067c-.387 0-.754-.04-1.098-.12a2.555 2.555 0 0 1-.949-.439 2.18 2.18 0 0 1-.687-.886c-.17-.378-.255-.85-.255-1.417zm2.72 1.204c0 .501.146.85.439 1.049.293.198.765.298 1.417.298h.652c.453 0 .815-.019 1.084-.057.269-.038.477-.099.624-.184a.684.684 0 0 0 .305-.347c.057-.146.085-.347.085-.602v-.992a1.77 1.77 0 0 0-.085-.609.675.675 0 0 0-.305-.354c-.146-.085-.354-.144-.624-.177a9.317 9.317 0 0 0-1.084-.05h-.652c-.652 0-1.124.099-1.417.298-.293.199-.439.548-.439 1.049z" fill="#e52d27"/><path d="M947.605 630.599h11.222v2.381h-8.077v1.644h7.651v2.125h-7.651v1.644h8.261v2.466h-11.406zm13.05 3.033h2.593v1.417h.028c.066-.5.312-.881.737-1.141s.982-.39 1.672-.39h1.034c1.275 0 2.168.562 2.678 1.686.227-.652.52-1.096.878-1.332.359-.236.926-.354 1.7-.354h.836c1.199 0 2.062.276 2.586.829.524.553.786 1.368.786 2.444v4.067h-2.72v-3.883c0-.264-.024-.479-.071-.645a.729.729 0 0 0-.255-.39c-.246-.198-.751-.298-1.516-.298-.671 0-1.146.09-1.424.269-.279.179-.418.5-.418.963v3.982h-2.721v-4.095c0-.236-.026-.425-.078-.567a.62.62 0 0 0-.291-.333 1.656 1.656 0 0 0-.588-.17 8.118 8.118 0 0 0-1.013-.05c-.604 0-1.041.099-1.311.298-.269.198-.404.567-.404 1.105v3.811h-2.72v-7.223zm17.272-3.033h2.721v4.364h.028a1.4 1.4 0 0 1 .283-.695c.151-.189.338-.338.56-.446.222-.108.468-.186.737-.234.269-.048.555-.071.857-.071h.807c.841 0 1.518.071 2.034.213.515.142.904.345 1.169.609.264.264.441.576.531.935.09.359.135.799.135 1.318v1.304c0 .52-.045.959-.135 1.318-.09.359-.267.671-.531.935-.265.265-.654.468-1.169.609-.515.142-1.193.213-2.034.213h-.793c-.784 0-1.377-.123-1.778-.369a1.95 1.95 0 0 1-.843-1.077h-.029v1.332h-2.55zm2.551 7c0 .52.13.871.39 1.056.26.184.677.276 1.254.276h1.601c.604 0 .994-.097 1.169-.291.175-.193.262-.517.262-.971v-.85c0-.453-.087-.777-.262-.971-.175-.193-.565-.29-1.169-.29h-1.601c-.576 0-.994.092-1.254.276-.26.184-.39.536-.39 1.056zm8.657-.751c0-.661.078-1.212.234-1.651.156-.439.38-.779.673-1.02.293-.241.64-.411 1.042-.51a5.857 5.857 0 0 1 1.396-.149h1.899c.755 0 1.386.048 1.891.142.505.094.919.255 1.24.482.321.227.56.541.716.942.156.402.234.919.234 1.551v1.219h-6.603v.439c0 .368.13.624.39.765.26.142.687.213 1.282.213h.836c.359 0 .642-.021.85-.064.208-.042.361-.101.461-.177a.513.513 0 0 0 .191-.248c.028-.089.042-.2.042-.333h2.55v.312c0 .435-.09.799-.269 1.091-.18.293-.432.52-.758.68a3.872 3.872 0 0 1-1.126.34 9.381 9.381 0 0 1-1.431.099h-2.04c-.52 0-.99-.038-1.41-.114a2.961 2.961 0 0 1-1.155-.468c-.349-.236-.626-.586-.829-1.049-.203-.463-.305-1.063-.305-1.8v-.692zm6.688-.609c0-.425-.127-.702-.383-.829-.255-.128-.789-.192-1.601-.192-.473 0-.834.014-1.084.042-.25.029-.442.076-.574.142a.489.489 0 0 0-.262.291 1.82 1.82 0 0 0-.064.546zm3.982.354c0-.519.045-.959.135-1.318.09-.359.267-.671.531-.935s.654-.468 1.169-.609c.515-.142 1.193-.213 2.033-.213h.808c.302 0 .586.024.85.071.264.047.51.125.737.234.227.109.416.258.567.446.151.189.245.421.283.695h.028V630.6h2.72v10.259h-2.55v-1.332h-.028a1.957 1.957 0 0 1-.843 1.077c-.402.246-.994.369-1.778.369h-.793c-.841 0-1.518-.071-2.033-.213-.515-.142-.905-.345-1.169-.609a1.965 1.965 0 0 1-.531-.935c-.09-.359-.135-.798-.135-1.318v-1.305zm2.635 1.077c0 .454.087.777.262.971.175.194.565.291 1.169.291h1.601c.576 0 .994-.092 1.254-.276.26-.184.39-.536.39-1.056v-.708c0-.52-.13-.871-.39-1.056-.26-.184-.678-.276-1.254-.276h-1.601c-.604 0-.994.097-1.169.29-.175.194-.262.517-.262.971zm8.913-1.077c0-.519.045-.959.135-1.318.09-.359.267-.671.531-.935s.654-.468 1.169-.609c.515-.142 1.193-.213 2.033-.213h.808c.302 0 .586.024.85.071.264.047.51.125.737.234.227.109.416.258.567.446.151.189.245.421.283.695h.028V630.6h2.72v10.259h-2.55v-1.332h-.028a1.957 1.957 0 0 1-.843 1.077c-.402.246-.994.369-1.778.369h-.793c-.841 0-1.518-.071-2.033-.213-.515-.142-.905-.345-1.169-.609a1.965 1.965 0 0 1-.531-.935c-.09-.359-.135-.798-.135-1.318v-1.305zm2.635 1.077c0 .454.088.777.262.971.175.194.565.291 1.169.291h1.601c.576 0 .994-.092 1.254-.276.26-.184.39-.536.39-1.056v-.708c0-.52-.13-.871-.39-1.056-.26-.184-.678-.276-1.254-.276h-1.601c-.604 0-.994.097-1.169.29-.175.194-.262.517-.262.971zm8.757-.822c0-.661.078-1.212.234-1.651.156-.439.38-.779.673-1.02.293-.241.64-.411 1.042-.51a5.857 5.857 0 0 1 1.396-.149h1.899c.755 0 1.386.048 1.891.142.505.094.919.255 1.24.482.321.227.56.541.716.942.156.402.234.919.234 1.551v1.219h-6.603v.439c0 .368.13.624.39.765.26.142.687.213 1.282.213h.836c.359 0 .642-.021.85-.064.208-.042.361-.101.461-.177a.513.513 0 0 0 .191-.248c.028-.089.042-.2.042-.333h2.551v.312c0 .435-.09.799-.269 1.091-.18.293-.432.52-.758.68a3.872 3.872 0 0 1-1.126.34 9.381 9.381 0 0 1-1.431.099h-2.04c-.52 0-.99-.038-1.41-.114a2.955 2.955 0 0 1-1.155-.468c-.349-.236-.626-.586-.829-1.049-.203-.463-.305-1.063-.305-1.8v-.692zm6.688-.609c0-.425-.127-.702-.383-.829-.255-.128-.789-.192-1.601-.192-.473 0-.834.014-1.084.042-.25.029-.442.076-.574.142a.489.489 0 0 0-.262.291 1.82 1.82 0 0 0-.064.546zm4.165-2.607h2.551v1.374h.029c.142-.539.448-.921.921-1.148.472-.227 1.049-.34 1.729-.34.982 0 1.688.224 2.118.673.43.448.645 1.174.645 2.175 0 .104 0 .269-.014.496a.822.822 0 0 0-.014.142h-2.352c0-.491-.088-.841-.262-1.049-.175-.208-.522-.312-1.042-.312-.491 0-.878.099-1.162.298-.283.198-.425.506-.425.921v3.996h-2.721v-7.226zM670.496 645.63h372.214v1.5H670.496z"/></g></svg>