<?xml version="1.0" encoding="UTF-8" standalone="no"?>
<!-- Generator: Adobe Illustrator 17.0.0, SVG Export Plug-In . SVG Version: 6.00 Build 0)  -->

<svg
   xmlns:dc="http://purl.org/dc/elements/1.1/"
   xmlns:cc="http://creativecommons.org/ns#"
   xmlns:rdf="http://www.w3.org/1999/02/22-rdf-syntax-ns#"
   xmlns:svg="http://www.w3.org/2000/svg"
   xmlns="http://www.w3.org/2000/svg"
   xmlns:sodipodi="http://sodipodi.sourceforge.net/DTD/sodipodi-0.dtd"
   xmlns:inkscape="http://www.inkscape.org/namespaces/inkscape"
   version="1.1"
   id="Layer_1"
   x="0px"
   y="0px"
   width="485.41898"
   height="94.260002"
   viewBox="0 0 485.41898 94.260002"
   enable-background="new 0 0 1600 1200"
   xml:space="preserve"
   sodipodi:docname="arve.svg"
   inkscape:version="0.92.1 unknown"><metadata
     id="metadata136"><rdf:RDF><cc:Work
         rdf:about=""><dc:format>image/svg+xml</dc:format><dc:type
           rdf:resource="http://purl.org/dc/dcmitype/StillImage" /><dc:title></dc:title></cc:Work></rdf:RDF></metadata><defs
     id="defs134"><filter
       style="color-interpolation-filters:sRGB;"
       inkscape:label="Colorize"
       id="filter32776"><feComposite
         in2="SourceGraphic"
         operator="arithmetic"
         k1="0"
         k2="1.92513"
         result="composite1"
         id="feComposite32762" /><feColorMatrix
         in="composite1"
         values="1"
         type="saturate"
         result="colormatrix1"
         id="feColorMatrix32764" /><feFlood
         flood-opacity="1"
         flood-color="rgb(255,255,255)"
         result="flood1"
         id="feFlood32766" /><feBlend
         in="flood1"
         in2="colormatrix1"
         mode="normal"
         result="blend1"
         id="feBlend32768" /><feBlend
         in2="blend1"
         mode="screen"
         result="blend2"
         id="feBlend32770" /><feColorMatrix
         in="blend2"
         values="1"
         type="saturate"
         result="colormatrix2"
         id="feColorMatrix32772" /><feComposite
         in="colormatrix2"
         in2="SourceGraphic"
         operator="in"
         k2="1"
         result="composite2"
         id="feComposite32774" /></filter><filter
       style="color-interpolation-filters:sRGB;"
       inkscape:label="Colorize"
       id="filter32792"><feComposite
         in2="SourceGraphic"
         operator="arithmetic"
         k1="0"
         k2="1.92513"
         result="composite1"
         id="feComposite32778" /><feColorMatrix
         in="composite1"
         values="1"
         type="saturate"
         result="colormatrix1"
         id="feColorMatrix32780" /><feFlood
         flood-opacity="1"
         flood-color="rgb(255,255,255)"
         result="flood1"
         id="feFlood32782" /><feBlend
         in="flood1"
         in2="colormatrix1"
         mode="normal"
         result="blend1"
         id="feBlend32784" /><feBlend
         in2="blend1"
         mode="screen"
         result="blend2"
         id="feBlend32786" /><feColorMatrix
         in="blend2"
         values="1"
         type="saturate"
         result="colormatrix2"
         id="feColorMatrix32788" /><feComposite
         in="colormatrix2"
         in2="SourceGraphic"
         operator="in"
         k2="1"
         result="composite2"
         id="feComposite32790" /></filter><filter
       style="color-interpolation-filters:sRGB;"
       inkscape:label="Colorize"
       id="filter32808"><feComposite
         in2="SourceGraphic"
         operator="arithmetic"
         k1="0"
         k2="1.92513"
         result="composite1"
         id="feComposite32794" /><feColorMatrix
         in="composite1"
         values="1"
         type="saturate"
         result="colormatrix1"
         id="feColorMatrix32796" /><feFlood
         flood-opacity="1"
         flood-color="rgb(255,255,255)"
         result="flood1"
         id="feFlood32798" /><feBlend
         in="flood1"
         in2="colormatrix1"
         mode="normal"
         result="blend1"
         id="feBlend32800" /><feBlend
         in2="blend1"
         mode="screen"
         result="blend2"
         id="feBlend32802" /><feColorMatrix
         in="blend2"
         values="1"
         type="saturate"
         result="colormatrix2"
         id="feColorMatrix32804" /><feComposite
         in="colormatrix2"
         in2="SourceGraphic"
         operator="in"
         k2="1"
         result="composite2"
         id="feComposite32806" /></filter><filter
       style="color-interpolation-filters:sRGB;"
       inkscape:label="Colorize"
       id="filter32824"><feComposite
         in2="SourceGraphic"
         operator="arithmetic"
         k1="0"
         k2="1.92513"
         result="composite1"
         id="feComposite32810" /><feColorMatrix
         in="composite1"
         values="1"
         type="saturate"
         result="colormatrix1"
         id="feColorMatrix32812" /><feFlood
         flood-opacity="1"
         flood-color="rgb(255,255,255)"
         result="flood1"
         id="feFlood32814" /><feBlend
         in="flood1"
         in2="colormatrix1"
         mode="normal"
         result="blend1"
         id="feBlend32816" /><feBlend
         in2="blend1"
         mode="screen"
         result="blend2"
         id="feBlend32818" /><feColorMatrix
         in="blend2"
         values="1"
         type="saturate"
         result="colormatrix2"
         id="feColorMatrix32820" /><feComposite
         in="colormatrix2"
         in2="SourceGraphic"
         operator="in"
         k2="1"
         result="composite2"
         id="feComposite32822" /></filter><filter
       style="color-interpolation-filters:sRGB;"
       inkscape:label="Colorize"
       id="filter32840"><feComposite
         in2="SourceGraphic"
         operator="arithmetic"
         k1="0"
         k2="1.92513"
         result="composite1"
         id="feComposite32826" /><feColorMatrix
         in="composite1"
         values="1"
         type="saturate"
         result="colormatrix1"
         id="feColorMatrix32828" /><feFlood
         flood-opacity="1"
         flood-color="rgb(255,255,255)"
         result="flood1"
         id="feFlood32830" /><feBlend
         in="flood1"
         in2="colormatrix1"
         mode="normal"
         result="blend1"
         id="feBlend32832" /><feBlend
         in2="blend1"
         mode="screen"
         result="blend2"
         id="feBlend32834" /><feColorMatrix
         in="blend2"
         values="1"
         type="saturate"
         result="colormatrix2"
         id="feColorMatrix32836" /><feComposite
         in="colormatrix2"
         in2="SourceGraphic"
         operator="in"
         k2="1"
         result="composite2"
         id="feComposite32838" /></filter><filter
       style="color-interpolation-filters:sRGB;"
       inkscape:label="Colorize"
       id="filter32856"><feComposite
         in2="SourceGraphic"
         operator="arithmetic"
         k1="0"
         k2="1.92513"
         result="composite1"
         id="feComposite32842" /><feColorMatrix
         in="composite1"
         values="1"
         type="saturate"
         result="colormatrix1"
         id="feColorMatrix32844" /><feFlood
         flood-opacity="1"
         flood-color="rgb(255,255,255)"
         result="flood1"
         id="feFlood32846" /><feBlend
         in="flood1"
         in2="colormatrix1"
         mode="normal"
         result="blend1"
         id="feBlend32848" /><feBlend
         in2="blend1"
         mode="screen"
         result="blend2"
         id="feBlend32850" /><feColorMatrix
         in="blend2"
         values="1"
         type="saturate"
         result="colormatrix2"
         id="feColorMatrix32852" /><feComposite
         in="colormatrix2"
         in2="SourceGraphic"
         operator="in"
         k2="1"
         result="composite2"
         id="feComposite32854" /></filter><filter
       style="color-interpolation-filters:sRGB;"
       inkscape:label="Colorize"
       id="filter32872"><feComposite
         in2="SourceGraphic"
         operator="arithmetic"
         k1="0"
         k2="1.92513"
         result="composite1"
         id="feComposite32858" /><feColorMatrix
         in="composite1"
         values="1"
         type="saturate"
         result="colormatrix1"
         id="feColorMatrix32860" /><feFlood
         flood-opacity="1"
         flood-color="rgb(255,255,255)"
         result="flood1"
         id="feFlood32862" /><feBlend
         in="flood1"
         in2="colormatrix1"
         mode="normal"
         result="blend1"
         id="feBlend32864" /><feBlend
         in2="blend1"
         mode="screen"
         result="blend2"
         id="feBlend32866" /><feColorMatrix
         in="blend2"
         values="1"
         type="saturate"
         result="colormatrix2"
         id="feColorMatrix32868" /><feComposite
         in="colormatrix2"
         in2="SourceGraphic"
         operator="in"
         k2="1"
         result="composite2"
         id="feComposite32870" /></filter><filter
       style="color-interpolation-filters:sRGB;"
       inkscape:label="Colorize"
       id="filter32888"><feComposite
         in2="SourceGraphic"
         operator="arithmetic"
         k1="0"
         k2="1.92513"
         result="composite1"
         id="feComposite32874" /><feColorMatrix
         in="composite1"
         values="1"
         type="saturate"
         result="colormatrix1"
         id="feColorMatrix32876" /><feFlood
         flood-opacity="1"
         flood-color="rgb(255,255,255)"
         result="flood1"
         id="feFlood32878" /><feBlend
         in="flood1"
         in2="colormatrix1"
         mode="normal"
         result="blend1"
         id="feBlend32880" /><feBlend
         in2="blend1"
         mode="screen"
         result="blend2"
         id="feBlend32882" /><feColorMatrix
         in="blend2"
         values="1"
         type="saturate"
         result="colormatrix2"
         id="feColorMatrix32884" /><feComposite
         in="colormatrix2"
         in2="SourceGraphic"
         operator="in"
         k2="1"
         result="composite2"
         id="feComposite32886" /></filter><filter
       style="color-interpolation-filters:sRGB;"
       inkscape:label="Colorize"
       id="filter32904"><feComposite
         in2="SourceGraphic"
         operator="arithmetic"
         k1="0"
         k2="1.92513"
         result="composite1"
         id="feComposite32890" /><feColorMatrix
         in="composite1"
         values="1"
         type="saturate"
         result="colormatrix1"
         id="feColorMatrix32892" /><feFlood
         flood-opacity="1"
         flood-color="rgb(255,255,255)"
         result="flood1"
         id="feFlood32894" /><feBlend
         in="flood1"
         in2="colormatrix1"
         mode="normal"
         result="blend1"
         id="feBlend32896" /><feBlend
         in2="blend1"
         mode="screen"
         result="blend2"
         id="feBlend32898" /><feColorMatrix
         in="blend2"
         values="1"
         type="saturate"
         result="colormatrix2"
         id="feColorMatrix32900" /><feComposite
         in="colormatrix2"
         in2="SourceGraphic"
         operator="in"
         k2="1"
         result="composite2"
         id="feComposite32902" /></filter><filter
       style="color-interpolation-filters:sRGB;"
       inkscape:label="Colorize"
       id="filter32920"><feComposite
         in2="SourceGraphic"
         operator="arithmetic"
         k1="0"
         k2="1.92513"
         result="composite1"
         id="feComposite32906" /><feColorMatrix
         in="composite1"
         values="1"
         type="saturate"
         result="colormatrix1"
         id="feColorMatrix32908" /><feFlood
         flood-opacity="1"
         flood-color="rgb(255,255,255)"
         result="flood1"
         id="feFlood32910" /><feBlend
         in="flood1"
         in2="colormatrix1"
         mode="normal"
         result="blend1"
         id="feBlend32912" /><feBlend
         in2="blend1"
         mode="screen"
         result="blend2"
         id="feBlend32914" /><feColorMatrix
         in="blend2"
         values="1"
         type="saturate"
         result="colormatrix2"
         id="feColorMatrix32916" /><feComposite
         in="colormatrix2"
         in2="SourceGraphic"
         operator="in"
         k2="1"
         result="composite2"
         id="feComposite32918" /></filter><filter
       style="color-interpolation-filters:sRGB;"
       inkscape:label="Colorize"
       id="filter32936"><feComposite
         in2="SourceGraphic"
         operator="arithmetic"
         k1="0"
         k2="1.92513"
         result="composite1"
         id="feComposite32922" /><feColorMatrix
         in="composite1"
         values="1"
         type="saturate"
         result="colormatrix1"
         id="feColorMatrix32924" /><feFlood
         flood-opacity="1"
         flood-color="rgb(255,255,255)"
         result="flood1"
         id="feFlood32926" /><feBlend
         in="flood1"
         in2="colormatrix1"
         mode="normal"
         result="blend1"
         id="feBlend32928" /><feBlend
         in2="blend1"
         mode="screen"
         result="blend2"
         id="feBlend32930" /><feColorMatrix
         in="blend2"
         values="1"
         type="saturate"
         result="colormatrix2"
         id="feColorMatrix32932" /><feComposite
         in="colormatrix2"
         in2="SourceGraphic"
         operator="in"
         k2="1"
         result="composite2"
         id="feComposite32934" /></filter><filter
       style="color-interpolation-filters:sRGB;"
       inkscape:label="Colorize"
       id="filter32952"><feComposite
         in2="SourceGraphic"
         operator="arithmetic"
         k1="0"
         k2="1.92513"
         result="composite1"
         id="feComposite32938" /><feColorMatrix
         in="composite1"
         values="1"
         type="saturate"
         result="colormatrix1"
         id="feColorMatrix32940" /><feFlood
         flood-opacity="1"
         flood-color="rgb(255,255,255)"
         result="flood1"
         id="feFlood32942" /><feBlend
         in="flood1"
         in2="colormatrix1"
         mode="normal"
         result="blend1"
         id="feBlend32944" /><feBlend
         in2="blend1"
         mode="screen"
         result="blend2"
         id="feBlend32946" /><feColorMatrix
         in="blend2"
         values="1"
         type="saturate"
         result="colormatrix2"
         id="feColorMatrix32948" /><feComposite
         in="colormatrix2"
         in2="SourceGraphic"
         operator="in"
         k2="1"
         result="composite2"
         id="feComposite32950" /></filter><filter
       style="color-interpolation-filters:sRGB;"
       inkscape:label="Colorize"
       id="filter32968"><feComposite
         in2="SourceGraphic"
         operator="arithmetic"
         k1="0"
         k2="1.92513"
         result="composite1"
         id="feComposite32954" /><feColorMatrix
         in="composite1"
         values="1"
         type="saturate"
         result="colormatrix1"
         id="feColorMatrix32956" /><feFlood
         flood-opacity="1"
         flood-color="rgb(255,255,255)"
         result="flood1"
         id="feFlood32958" /><feBlend
         in="flood1"
         in2="colormatrix1"
         mode="normal"
         result="blend1"
         id="feBlend32960" /><feBlend
         in2="blend1"
         mode="screen"
         result="blend2"
         id="feBlend32962" /><feColorMatrix
         in="blend2"
         values="1"
         type="saturate"
         result="colormatrix2"
         id="feColorMatrix32964" /><feComposite
         in="colormatrix2"
         in2="SourceGraphic"
         operator="in"
         k2="1"
         result="composite2"
         id="feComposite32966" /></filter><filter
       style="color-interpolation-filters:sRGB;"
       inkscape:label="Colorize"
       id="filter32984"><feComposite
         in2="SourceGraphic"
         operator="arithmetic"
         k1="0"
         k2="1.92513"
         result="composite1"
         id="feComposite32970" /><feColorMatrix
         in="composite1"
         values="1"
         type="saturate"
         result="colormatrix1"
         id="feColorMatrix32972" /><feFlood
         flood-opacity="1"
         flood-color="rgb(255,255,255)"
         result="flood1"
         id="feFlood32974" /><feBlend
         in="flood1"
         in2="colormatrix1"
         mode="normal"
         result="blend1"
         id="feBlend32976" /><feBlend
         in2="blend1"
         mode="screen"
         result="blend2"
         id="feBlend32978" /><feColorMatrix
         in="blend2"
         values="1"
         type="saturate"
         result="colormatrix2"
         id="feColorMatrix32980" /><feComposite
         in="colormatrix2"
         in2="SourceGraphic"
         operator="in"
         k2="1"
         result="composite2"
         id="feComposite32982" /></filter><filter
       style="color-interpolation-filters:sRGB;"
       inkscape:label="Colorize"
       id="filter33000"><feComposite
         in2="SourceGraphic"
         operator="arithmetic"
         k1="0"
         k2="1.92513"
         result="composite1"
         id="feComposite32986" /><feColorMatrix
         in="composite1"
         values="1"
         type="saturate"
         result="colormatrix1"
         id="feColorMatrix32988" /><feFlood
         flood-opacity="1"
         flood-color="rgb(255,255,255)"
         result="flood1"
         id="feFlood32990" /><feBlend
         in="flood1"
         in2="colormatrix1"
         mode="normal"
         result="blend1"
         id="feBlend32992" /><feBlend
         in2="blend1"
         mode="screen"
         result="blend2"
         id="feBlend32994" /><feColorMatrix
         in="blend2"
         values="1"
         type="saturate"
         result="colormatrix2"
         id="feColorMatrix32996" /><feComposite
         in="colormatrix2"
         in2="SourceGraphic"
         operator="in"
         k2="1"
         result="composite2"
         id="feComposite32998" /></filter><filter
       style="color-interpolation-filters:sRGB;"
       inkscape:label="Colorize"
       id="filter33016"><feComposite
         in2="SourceGraphic"
         operator="arithmetic"
         k1="0"
         k2="1.92513"
         result="composite1"
         id="feComposite33002" /><feColorMatrix
         in="composite1"
         values="1"
         type="saturate"
         result="colormatrix1"
         id="feColorMatrix33004" /><feFlood
         flood-opacity="1"
         flood-color="rgb(255,255,255)"
         result="flood1"
         id="feFlood33006" /><feBlend
         in="flood1"
         in2="colormatrix1"
         mode="normal"
         result="blend1"
         id="feBlend33008" /><feBlend
         in2="blend1"
         mode="screen"
         result="blend2"
         id="feBlend33010" /><feColorMatrix
         in="blend2"
         values="1"
         type="saturate"
         result="colormatrix2"
         id="feColorMatrix33012" /><feComposite
         in="colormatrix2"
         in2="SourceGraphic"
         operator="in"
         k2="1"
         result="composite2"
         id="feComposite33014" /></filter><filter
       style="color-interpolation-filters:sRGB;"
       inkscape:label="Colorize"
       id="filter33032"><feComposite
         in2="SourceGraphic"
         operator="arithmetic"
         k1="0"
         k2="1.92513"
         result="composite1"
         id="feComposite33018" /><feColorMatrix
         in="composite1"
         values="1"
         type="saturate"
         result="colormatrix1"
         id="feColorMatrix33020" /><feFlood
         flood-opacity="1"
         flood-color="rgb(255,255,255)"
         result="flood1"
         id="feFlood33022" /><feBlend
         in="flood1"
         in2="colormatrix1"
         mode="normal"
         result="blend1"
         id="feBlend33024" /><feBlend
         in2="blend1"
         mode="screen"
         result="blend2"
         id="feBlend33026" /><feColorMatrix
         in="blend2"
         values="1"
         type="saturate"
         result="colormatrix2"
         id="feColorMatrix33028" /><feComposite
         in="colormatrix2"
         in2="SourceGraphic"
         operator="in"
         k2="1"
         result="composite2"
         id="feComposite33030" /></filter><filter
       style="color-interpolation-filters:sRGB;"
       inkscape:label="Colorize"
       id="filter33048"><feComposite
         in2="SourceGraphic"
         operator="arithmetic"
         k1="0"
         k2="1.92513"
         result="composite1"
         id="feComposite33034" /><feColorMatrix
         in="composite1"
         values="1"
         type="saturate"
         result="colormatrix1"
         id="feColorMatrix33036" /><feFlood
         flood-opacity="1"
         flood-color="rgb(255,255,255)"
         result="flood1"
         id="feFlood33038" /><feBlend
         in="flood1"
         in2="colormatrix1"
         mode="normal"
         result="blend1"
         id="feBlend33040" /><feBlend
         in2="blend1"
         mode="screen"
         result="blend2"
         id="feBlend33042" /><feColorMatrix
         in="blend2"
         values="1"
         type="saturate"
         result="colormatrix2"
         id="feColorMatrix33044" /><feComposite
         in="colormatrix2"
         in2="SourceGraphic"
         operator="in"
         k2="1"
         result="composite2"
         id="feComposite33046" /></filter><filter
       style="color-interpolation-filters:sRGB;"
       inkscape:label="Colorize"
       id="filter33064"><feComposite
         in2="SourceGraphic"
         operator="arithmetic"
         k1="0"
         k2="1.92513"
         result="composite1"
         id="feComposite33050" /><feColorMatrix
         in="composite1"
         values="1"
         type="saturate"
         result="colormatrix1"
         id="feColorMatrix33052" /><feFlood
         flood-opacity="1"
         flood-color="rgb(255,255,255)"
         result="flood1"
         id="feFlood33054" /><feBlend
         in="flood1"
         in2="colormatrix1"
         mode="normal"
         result="blend1"
         id="feBlend33056" /><feBlend
         in2="blend1"
         mode="screen"
         result="blend2"
         id="feBlend33058" /><feColorMatrix
         in="blend2"
         values="1"
         type="saturate"
         result="colormatrix2"
         id="feColorMatrix33060" /><feComposite
         in="colormatrix2"
         in2="SourceGraphic"
         operator="in"
         k2="1"
         result="composite2"
         id="feComposite33062" /></filter><filter
       style="color-interpolation-filters:sRGB;"
       inkscape:label="Colorize"
       id="filter33080"><feComposite
         in2="SourceGraphic"
         operator="arithmetic"
         k1="0"
         k2="1.92513"
         result="composite1"
         id="feComposite33066" /><feColorMatrix
         in="composite1"
         values="1"
         type="saturate"
         result="colormatrix1"
         id="feColorMatrix33068" /><feFlood
         flood-opacity="1"
         flood-color="rgb(255,255,255)"
         result="flood1"
         id="feFlood33070" /><feBlend
         in="flood1"
         in2="colormatrix1"
         mode="normal"
         result="blend1"
         id="feBlend33072" /><feBlend
         in2="blend1"
         mode="screen"
         result="blend2"
         id="feBlend33074" /><feColorMatrix
         in="blend2"
         values="1"
         type="saturate"
         result="colormatrix2"
         id="feColorMatrix33076" /><feComposite
         in="colormatrix2"
         in2="SourceGraphic"
         operator="in"
         k2="1"
         result="composite2"
         id="feComposite33078" /></filter><filter
       style="color-interpolation-filters:sRGB;"
       inkscape:label="Colorize"
       id="filter33096"><feComposite
         in2="SourceGraphic"
         operator="arithmetic"
         k1="0"
         k2="1.92513"
         result="composite1"
         id="feComposite33082" /><feColorMatrix
         in="composite1"
         values="1"
         type="saturate"
         result="colormatrix1"
         id="feColorMatrix33084" /><feFlood
         flood-opacity="1"
         flood-color="rgb(255,255,255)"
         result="flood1"
         id="feFlood33086" /><feBlend
         in="flood1"
         in2="colormatrix1"
         mode="normal"
         result="blend1"
         id="feBlend33088" /><feBlend
         in2="blend1"
         mode="screen"
         result="blend2"
         id="feBlend33090" /><feColorMatrix
         in="blend2"
         values="1"
         type="saturate"
         result="colormatrix2"
         id="feColorMatrix33092" /><feComposite
         in="colormatrix2"
         in2="SourceGraphic"
         operator="in"
         k2="1"
         result="composite2"
         id="feComposite33094" /></filter><filter
       style="color-interpolation-filters:sRGB;"
       inkscape:label="Colorize"
       id="filter33112"><feComposite
         in2="SourceGraphic"
         operator="arithmetic"
         k1="0"
         k2="1.92513"
         result="composite1"
         id="feComposite33098" /><feColorMatrix
         in="composite1"
         values="1"
         type="saturate"
         result="colormatrix1"
         id="feColorMatrix33100" /><feFlood
         flood-opacity="1"
         flood-color="rgb(255,255,255)"
         result="flood1"
         id="feFlood33102" /><feBlend
         in="flood1"
         in2="colormatrix1"
         mode="normal"
         result="blend1"
         id="feBlend33104" /><feBlend
         in2="blend1"
         mode="screen"
         result="blend2"
         id="feBlend33106" /><feColorMatrix
         in="blend2"
         values="1"
         type="saturate"
         result="colormatrix2"
         id="feColorMatrix33108" /><feComposite
         in="colormatrix2"
         in2="SourceGraphic"
         operator="in"
         k2="1"
         result="composite2"
         id="feComposite33110" /></filter><filter
       style="color-interpolation-filters:sRGB;"
       inkscape:label="Colorize"
       id="filter33128"><feComposite
         in2="SourceGraphic"
         operator="arithmetic"
         k1="0"
         k2="1.92513"
         result="composite1"
         id="feComposite33114" /><feColorMatrix
         in="composite1"
         values="1"
         type="saturate"
         result="colormatrix1"
         id="feColorMatrix33116" /><feFlood
         flood-opacity="1"
         flood-color="rgb(255,255,255)"
         result="flood1"
         id="feFlood33118" /><feBlend
         in="flood1"
         in2="colormatrix1"
         mode="normal"
         result="blend1"
         id="feBlend33120" /><feBlend
         in2="blend1"
         mode="screen"
         result="blend2"
         id="feBlend33122" /><feColorMatrix
         in="blend2"
         values="1"
         type="saturate"
         result="colormatrix2"
         id="feColorMatrix33124" /><feComposite
         in="colormatrix2"
         in2="SourceGraphic"
         operator="in"
         k2="1"
         result="composite2"
         id="feComposite33126" /></filter><filter
       style="color-interpolation-filters:sRGB;"
       inkscape:label="Colorize"
       id="filter33144"><feComposite
         in2="SourceGraphic"
         operator="arithmetic"
         k1="0"
         k2="1.92513"
         result="composite1"
         id="feComposite33130" /><feColorMatrix
         in="composite1"
         values="1"
         type="saturate"
         result="colormatrix1"
         id="feColorMatrix33132" /><feFlood
         flood-opacity="1"
         flood-color="rgb(255,255,255)"
         result="flood1"
         id="feFlood33134" /><feBlend
         in="flood1"
         in2="colormatrix1"
         mode="normal"
         result="blend1"
         id="feBlend33136" /><feBlend
         in2="blend1"
         mode="screen"
         result="blend2"
         id="feBlend33138" /><feColorMatrix
         in="blend2"
         values="1"
         type="saturate"
         result="colormatrix2"
         id="feColorMatrix33140" /><feComposite
         in="colormatrix2"
         in2="SourceGraphic"
         operator="in"
         k2="1"
         result="composite2"
         id="feComposite33142" /></filter><filter
       style="color-interpolation-filters:sRGB;"
       inkscape:label="Colorize"
       id="filter33160"><feComposite
         in2="SourceGraphic"
         operator="arithmetic"
         k1="0"
         k2="1.92513"
         result="composite1"
         id="feComposite33146" /><feColorMatrix
         in="composite1"
         values="1"
         type="saturate"
         result="colormatrix1"
         id="feColorMatrix33148" /><feFlood
         flood-opacity="1"
         flood-color="rgb(255,255,255)"
         result="flood1"
         id="feFlood33150" /><feBlend
         in="flood1"
         in2="colormatrix1"
         mode="normal"
         result="blend1"
         id="feBlend33152" /><feBlend
         in2="blend1"
         mode="screen"
         result="blend2"
         id="feBlend33154" /><feColorMatrix
         in="blend2"
         values="1"
         type="saturate"
         result="colormatrix2"
         id="feColorMatrix33156" /><feComposite
         in="colormatrix2"
         in2="SourceGraphic"
         operator="in"
         k2="1"
         result="composite2"
         id="feComposite33158" /></filter></defs><sodipodi:namedview
     pagecolor="#ffffff"
     bordercolor="#666666"
     borderopacity="1"
     objecttolerance="10"
     gridtolerance="10"
     guidetolerance="10"
     inkscape:pageopacity="0"
     inkscape:pageshadow="2"
     inkscape:window-width="1855"
     inkscape:window-height="1176"
     id="namedview132"
     showgrid="false"
     inkscape:showpageshadow="false"
     inkscape:zoom="2.2250293"
     inkscape:cx="250.07699"
     inkscape:cy="120.20161"
     inkscape:window-x="65"
     inkscape:window-y="24"
     inkscape:window-maximized="1"
     inkscape:current-layer="Layer_1"
     fit-margin-top="0"
     fit-margin-left="0"
     fit-margin-right="0"
     fit-margin-bottom="0" /><polygon
     id="polygon2"
     points="712.459,582.144 690.578,582.144 670.544,619.146 693.247,619.146 "
     transform="translate(-557.291,-552.87)"
     style="filter:url(#filter33160)" /><polygon
     id="polygon4"
     points="746.707,619.146 769.318,619.146 748.977,582.144 726.967,582.144 732.792,593.149 "
     transform="translate(-557.291,-552.87)"
     style="filter:url(#filter33144)" /><polygon
     style="fill:#e52d27"
     id="polygon6"
     points="697.89,568.249 719.398,568.249 741.126,568.249 732.672,552.87 706.216,552.87 "
     transform="translate(-557.291,-552.87)" /><path
     inkscape:connector-curvature="0"
     id="path8"
     d="m 280.02,30.941 c -1.16,1.099 -3.083,1.648 -5.767,1.648 h -33.596 v -3.315 h -20.322 v 37.002 h 20.322 v -17.21 h 31.948 c 3.173,0 5.355,0.672 6.545,2.014 1.19,1.343 1.785,3.753 1.785,7.232 v 7.964 h 20.322 v -11.26 c 0,-2.623 -0.274,-4.836 -0.824,-6.637 -0.549,-1.799 -1.327,-3.218 -2.334,-4.257 -1.007,-1.037 -2.151,-1.845 -3.433,-2.426 -1.282,-0.579 -2.778,-1.021 -4.485,-1.327 v -0.183 c 4.454,-1.037 7.461,-2.822 9.017,-5.355 0.905,-1.472 1.538,-3.333 1.917,-5.558 h -19.978 c -0.28,0.665 -0.649,1.224 -1.117,1.668 z"
     style="filter:url(#filter33128)" /><path
     style="fill:#e52d27"
     inkscape:connector-curvature="0"
     id="path10"
     d="M 300.359,11.443 C 299.718,9.063 298.65,7.019 297.155,5.31 295.659,3.602 293.631,2.289 291.068,1.374 288.505,0.458 285.301,10e-4 281.456,10e-4 H 220.123 V 15.38 h 80.965 c -0.161,-1.407 -0.402,-2.721 -0.729,-3.937 z" /><polygon
     id="polygon12"
     points="902.499,582.144 880.584,582.144 900.466,619.146 925.548,619.146 945.429,582.144 923.514,582.144 913.006,602.12 "
     transform="translate(-557.291,-552.87)"
     style="filter:url(#filter33112)" /><polygon
     style="fill:#e52d27"
     id="polygon14"
     points="961.157,552.87 938.913,552.87 930.823,568.249 952.894,568.249 "
     transform="translate(-557.291,-552.87)" /><polygon
     style="fill:#e52d27"
     id="polygon16"
     points="887.1,552.87 864.856,552.87 873.119,568.249 895.19,568.249 "
     transform="translate(-557.291,-552.87)" /><polygon
     style="fill:#e52d27"
     id="polygon18"
     points="968.48,568.249 988.803,568.249 1040.982,568.249 1040.982,552.87 968.48,552.87 "
     transform="translate(-557.291,-552.87)" /><polygon
     id="polygon20"
     points="988.803,603.218 988.803,592.599 1038.235,592.599 1038.235,582.144 968.48,582.144 968.48,619.146 1042.171,619.146 1042.171,603.218 "
     transform="translate(-557.291,-552.87)"
     style="filter:url(#filter33096)" /><g
     id="g28"
     transform="translate(-557.291,-552.87)"
     style="filter:url(#filter33064)"><g
       id="g26"><rect
         id="rect24"
         height="1.5"
         width="372.21399"
         y="625.79901"
         x="670.49597" /></g></g><path
     d="m 119.878,77.729 h 4.095 l 5.639,10.259 h -3.5 l -0.978,-1.814 h -6.376 l -0.921,1.814 h -3.514 z m 0.057,6.235 h 4.024 l -2.04,-3.854 z"
     id="path30"
     inkscape:connector-curvature="0"
     style="fill:#e52d27" /><path
     d="m 130.42,83.723 c 0,-0.519 0.045,-0.959 0.135,-1.318 0.09,-0.359 0.267,-0.671 0.531,-0.935 0.264,-0.264 0.654,-0.468 1.169,-0.609 0.515,-0.142 1.193,-0.213 2.033,-0.213 h 0.808 c 0.302,0 0.586,0.024 0.85,0.071 0.264,0.047 0.51,0.125 0.737,0.234 0.227,0.109 0.416,0.258 0.567,0.446 0.151,0.189 0.245,0.421 0.283,0.695 h 0.028 V 77.73 h 2.72 v 10.259 h -2.55 v -1.332 h -0.028 c -0.161,0.473 -0.442,0.831 -0.843,1.077 -0.402,0.246 -0.994,0.369 -1.778,0.369 h -0.793 c -0.841,0 -1.518,-0.071 -2.033,-0.213 -0.515,-0.142 -0.905,-0.345 -1.169,-0.609 -0.265,-0.264 -0.442,-0.576 -0.531,-0.935 -0.09,-0.359 -0.135,-0.798 -0.135,-1.318 v -1.305 z m 2.636,1.077 c 0,0.454 0.088,0.777 0.262,0.971 0.175,0.194 0.565,0.291 1.169,0.291 h 1.601 c 0.576,0 0.994,-0.092 1.254,-0.276 0.26,-0.184 0.39,-0.536 0.39,-1.056 v -0.708 c 0,-0.52 -0.13,-0.871 -0.39,-1.056 -0.26,-0.184 -0.678,-0.276 -1.254,-0.276 h -1.601 c -0.604,0 -0.994,0.097 -1.169,0.29 -0.175,0.194 -0.262,0.517 -0.262,0.971 z"
     id="path32"
     inkscape:connector-curvature="0"
     style="fill:#e52d27" /><path
     d="m 141.302,80.762 h 2.962 l 2.21,5.101 2.21,-5.101 h 2.961 l -3.471,7.226 h -3.401 z"
     id="path34"
     inkscape:connector-curvature="0"
     style="fill:#e52d27" /><path
     d="m 152.213,85.452 c 0,-0.482 0.082,-0.864 0.248,-1.148 0.165,-0.283 0.411,-0.491 0.737,-0.624 0.326,-0.132 0.718,-0.217 1.176,-0.255 0.458,-0.038 1.069,-0.057 1.835,-0.057 0.841,0 1.462,0.033 1.863,0.099 0.402,0.066 0.725,0.227 0.971,0.481 v -0.637 c 0,-0.368 -0.083,-0.621 -0.248,-0.758 -0.166,-0.137 -0.508,-0.205 -1.027,-0.205 h -1.601 c -0.416,0 -0.692,0.036 -0.829,0.107 -0.137,0.071 -0.21,0.229 -0.22,0.474 h -2.635 c 0,-0.482 0.062,-0.874 0.184,-1.176 0.123,-0.302 0.314,-0.533 0.574,-0.694 0.26,-0.161 0.588,-0.269 0.984,-0.326 0.397,-0.056 0.902,-0.085 1.516,-0.085 h 3.16 c 0.935,0 1.646,0.22 2.133,0.659 0.486,0.439 0.73,1.084 0.73,1.934 v 4.747 h -2.579 v -0.822 c -0.198,0.208 -0.371,0.371 -0.517,0.489 -0.147,0.118 -0.3,0.21 -0.461,0.276 -0.161,0.066 -0.35,0.111 -0.567,0.135 -0.218,0.023 -0.501,0.036 -0.85,0.036 h -1.856 c -0.916,0 -1.599,-0.146 -2.047,-0.439 -0.449,-0.293 -0.673,-0.831 -0.673,-1.615 v -0.596 z m 4.845,0.949 c 0.463,0 0.829,-0.016 1.098,-0.05 0.269,-0.033 0.472,-0.082 0.609,-0.149 0.137,-0.066 0.227,-0.142 0.269,-0.227 0.042,-0.085 0.064,-0.198 0.064,-0.34 0,-0.293 -0.099,-0.489 -0.298,-0.588 -0.198,-0.099 -0.652,-0.149 -1.36,-0.149 h -1.204 c -0.548,0 -0.916,0.064 -1.105,0.191 -0.189,0.127 -0.283,0.347 -0.283,0.659 0,0.237 0.106,0.404 0.319,0.503 0.212,0.099 0.583,0.149 1.112,0.149 h 0.779 z"
     id="path36"
     inkscape:connector-curvature="0"
     style="fill:#e52d27" /><path
     d="m 163.506,80.762 h 2.721 v 1.162 h 0.028 c 0.227,-0.482 0.572,-0.815 1.034,-0.999 0.463,-0.184 1.082,-0.276 1.856,-0.276 0.567,0 1.063,0.026 1.488,0.078 0.425,0.052 0.834,0.177 1.226,0.376 0.392,0.198 0.711,0.52 0.956,0.963 0.246,0.444 0.368,1.034 0.368,1.771 v 4.152 h -2.72 v -4.152 c 0,-0.708 -0.586,-1.063 -1.757,-1.063 h -0.624 c -0.586,0 -1.041,0.135 -1.367,0.404 -0.326,0.269 -0.489,0.659 -0.489,1.169 v 3.642 h -2.721 v -7.227 z"
     id="path38"
     inkscape:connector-curvature="0"
     style="fill:#e52d27" /><path
     d="m 174.713,83.978 c 0,-0.661 0.078,-1.212 0.234,-1.651 0.156,-0.439 0.38,-0.779 0.673,-1.02 0.293,-0.241 0.64,-0.411 1.042,-0.51 0.401,-0.099 0.866,-0.149 1.396,-0.149 h 3.061 c 1.039,0 1.839,0.196 2.402,0.588 0.562,0.392 0.843,0.994 0.843,1.807 v 0.652 h -2.635 c 0,-0.368 -0.116,-0.628 -0.347,-0.78 -0.232,-0.151 -0.64,-0.227 -1.226,-0.227 h -1.049 c -0.576,0 -0.999,0.088 -1.268,0.262 -0.269,0.175 -0.404,0.456 -0.404,0.843 v 0.963 c 0,0.444 0.125,0.758 0.375,0.942 0.25,0.184 0.607,0.276 1.07,0.276 h 1.389 c 0.434,0 0.786,-0.064 1.056,-0.191 0.269,-0.127 0.404,-0.342 0.404,-0.645 v -0.17 h 2.635 v 0.637 c 0,0.463 -0.088,0.857 -0.262,1.183 -0.175,0.326 -0.413,0.583 -0.715,0.772 -0.302,0.189 -0.64,0.326 -1.013,0.411 -0.373,0.085 -0.768,0.128 -1.183,0.128 h -2.777 c -0.52,0 -0.99,-0.038 -1.41,-0.114 -0.421,-0.075 -0.805,-0.231 -1.155,-0.468 -0.349,-0.236 -0.626,-0.586 -0.829,-1.049 -0.203,-0.463 -0.305,-1.063 -0.305,-1.8 v -0.69 z"
     id="path40"
     inkscape:connector-curvature="0"
     style="fill:#e52d27" /><path
     d="m 185.553,83.978 c 0,-0.661 0.078,-1.212 0.234,-1.651 0.156,-0.439 0.38,-0.779 0.673,-1.02 0.293,-0.241 0.64,-0.411 1.042,-0.51 0.401,-0.099 0.866,-0.149 1.396,-0.149 h 1.899 c 0.755,0 1.386,0.048 1.891,0.142 0.505,0.094 0.919,0.255 1.24,0.482 0.321,0.227 0.56,0.541 0.716,0.942 0.156,0.402 0.234,0.919 0.234,1.551 v 1.219 h -6.603 v 0.439 c 0,0.368 0.13,0.624 0.39,0.765 0.26,0.142 0.687,0.213 1.282,0.213 h 0.836 c 0.359,0 0.642,-0.021 0.85,-0.064 0.208,-0.042 0.361,-0.101 0.461,-0.177 0.099,-0.076 0.163,-0.158 0.191,-0.248 0.028,-0.089 0.042,-0.2 0.042,-0.333 h 2.55 v 0.312 c 0,0.435 -0.09,0.799 -0.269,1.091 -0.18,0.293 -0.432,0.52 -0.758,0.68 -0.326,0.161 -0.701,0.274 -1.126,0.34 -0.425,0.066 -0.902,0.099 -1.431,0.099 h -2.04 c -0.52,0 -0.99,-0.038 -1.41,-0.114 -0.421,-0.075 -0.805,-0.231 -1.155,-0.468 -0.349,-0.236 -0.626,-0.586 -0.829,-1.049 -0.203,-0.463 -0.305,-1.063 -0.305,-1.8 v -0.692 z m 6.688,-0.609 c 0,-0.425 -0.127,-0.702 -0.383,-0.829 -0.255,-0.128 -0.789,-0.192 -1.601,-0.192 -0.473,0 -0.834,0.014 -1.084,0.042 -0.25,0.029 -0.442,0.076 -0.574,0.142 -0.133,0.066 -0.22,0.163 -0.262,0.291 -0.042,0.127 -0.064,0.309 -0.064,0.546 z"
     id="path42"
     inkscape:connector-curvature="0"
     style="fill:#e52d27" /><path
     d="m 196.223,83.723 c 0,-0.519 0.045,-0.959 0.135,-1.318 0.09,-0.359 0.267,-0.671 0.531,-0.935 0.264,-0.264 0.654,-0.468 1.169,-0.609 0.515,-0.142 1.193,-0.213 2.033,-0.213 h 0.808 c 0.302,0 0.586,0.024 0.85,0.071 0.264,0.047 0.51,0.125 0.737,0.234 0.227,0.109 0.416,0.258 0.567,0.446 0.151,0.189 0.245,0.421 0.283,0.695 h 0.028 V 77.73 h 2.72 v 10.259 h -2.55 v -1.332 h -0.028 c -0.161,0.473 -0.442,0.831 -0.843,1.077 -0.402,0.246 -0.994,0.369 -1.778,0.369 h -0.793 c -0.841,0 -1.518,-0.071 -2.033,-0.213 -0.515,-0.142 -0.905,-0.345 -1.169,-0.609 -0.265,-0.264 -0.442,-0.576 -0.531,-0.935 -0.09,-0.359 -0.135,-0.798 -0.135,-1.318 v -1.305 z m 2.635,1.077 c 0,0.454 0.087,0.777 0.262,0.971 0.175,0.194 0.565,0.291 1.169,0.291 h 1.601 c 0.576,0 0.994,-0.092 1.254,-0.276 0.26,-0.184 0.39,-0.536 0.39,-1.056 v -0.708 c 0,-0.52 -0.13,-0.871 -0.39,-1.056 -0.26,-0.184 -0.678,-0.276 -1.254,-0.276 h -1.601 c -0.604,0 -0.994,0.097 -1.169,0.29 -0.175,0.194 -0.262,0.517 -0.262,0.971 z"
     id="path44"
     inkscape:connector-curvature="0"
     style="fill:#e52d27" /><path
     d="m 215.082,77.729 h 9.493 c 0.595,0 1.091,0.071 1.488,0.213 0.397,0.142 0.711,0.345 0.942,0.609 0.231,0.264 0.397,0.581 0.496,0.949 0.099,0.368 0.149,0.793 0.149,1.275 v 0.652 c 0,0.737 -0.12,1.301 -0.361,1.693 -0.241,0.392 -0.706,0.669 -1.396,0.829 v 0.029 c 0.264,0.047 0.496,0.116 0.694,0.205 0.198,0.09 0.376,0.215 0.531,0.376 0.156,0.161 0.276,0.38 0.361,0.659 0.085,0.279 0.128,0.621 0.128,1.027 v 1.743 h -3.146 v -1.233 c 0,-0.539 -0.092,-0.911 -0.276,-1.119 -0.184,-0.208 -0.522,-0.312 -1.013,-0.312 h -4.945 v 2.664 h -3.145 z m 3.145,5.045 h 5.2 c 0.416,0 0.713,-0.085 0.893,-0.255 0.179,-0.17 0.269,-0.444 0.269,-0.822 v -0.34 c 0,-0.434 -0.109,-0.722 -0.326,-0.864 -0.217,-0.142 -0.59,-0.213 -1.119,-0.213 h -4.917 z"
     id="path46"
     inkscape:connector-curvature="0"
     style="filter:url(#filter33080)" /><path
     d="m 229.308,83.978 c 0,-0.661 0.078,-1.212 0.234,-1.651 0.156,-0.439 0.38,-0.779 0.673,-1.02 0.293,-0.241 0.64,-0.411 1.042,-0.51 0.401,-0.099 0.866,-0.149 1.396,-0.149 h 1.899 c 0.755,0 1.386,0.048 1.891,0.142 0.505,0.094 0.919,0.255 1.24,0.482 0.321,0.227 0.56,0.541 0.716,0.942 0.156,0.402 0.234,0.919 0.234,1.551 v 1.219 h -6.603 v 0.439 c 0,0.368 0.13,0.624 0.39,0.765 0.26,0.142 0.687,0.213 1.282,0.213 h 0.836 c 0.359,0 0.642,-0.021 0.85,-0.064 0.208,-0.042 0.361,-0.101 0.461,-0.177 0.099,-0.076 0.163,-0.158 0.191,-0.248 0.028,-0.089 0.042,-0.2 0.042,-0.333 h 2.551 v 0.312 c 0,0.435 -0.09,0.799 -0.269,1.091 -0.18,0.293 -0.432,0.52 -0.758,0.68 -0.326,0.161 -0.701,0.274 -1.126,0.34 -0.425,0.066 -0.902,0.099 -1.431,0.099 h -2.04 c -0.52,0 -0.99,-0.038 -1.41,-0.114 -0.421,-0.075 -0.806,-0.231 -1.155,-0.468 -0.349,-0.236 -0.626,-0.586 -0.829,-1.049 -0.203,-0.463 -0.305,-1.063 -0.305,-1.8 v -0.692 z m 6.688,-0.609 c 0,-0.425 -0.127,-0.702 -0.383,-0.829 -0.255,-0.128 -0.789,-0.192 -1.601,-0.192 -0.473,0 -0.834,0.014 -1.084,0.042 -0.25,0.029 -0.442,0.076 -0.574,0.142 -0.133,0.066 -0.22,0.163 -0.262,0.291 -0.042,0.127 -0.064,0.309 -0.064,0.546 z"
     id="path48"
     inkscape:connector-curvature="0"
     style="filter:url(#filter33032)" /><path
     d="m 242.698,85.735 c 0,0.113 0.016,0.208 0.049,0.283 0.033,0.075 0.106,0.142 0.22,0.198 0.113,0.057 0.286,0.102 0.517,0.135 0.231,0.033 0.532,0.05 0.9,0.05 h 0.964 c 0.652,0 1.084,-0.036 1.296,-0.107 0.212,-0.071 0.319,-0.215 0.319,-0.432 0,-0.217 -0.08,-0.37 -0.241,-0.461 -0.161,-0.09 -0.472,-0.134 -0.935,-0.134 h -2.55 c -0.652,-0.01 -1.186,-0.055 -1.601,-0.135 -0.416,-0.08 -0.746,-0.215 -0.992,-0.404 -0.246,-0.189 -0.423,-0.444 -0.531,-0.765 -0.109,-0.321 -0.163,-0.737 -0.163,-1.247 0,-0.435 0.082,-0.791 0.248,-1.07 0.165,-0.279 0.394,-0.489 0.687,-0.631 0.293,-0.142 0.633,-0.238 1.02,-0.29 0.387,-0.052 0.841,-0.078 1.361,-0.078 h 1.898 c 0.907,0 1.632,0.036 2.175,0.107 0.543,0.071 0.961,0.189 1.254,0.354 0.293,0.165 0.494,0.383 0.602,0.652 0.108,0.269 0.167,0.63 0.177,1.084 h -2.72 c -0.038,-0.114 -0.09,-0.201 -0.156,-0.262 -0.066,-0.062 -0.168,-0.111 -0.305,-0.149 -0.137,-0.038 -0.324,-0.062 -0.559,-0.071 -0.237,-0.009 -0.572,-0.014 -1.006,-0.014 -0.803,0 -1.315,0.029 -1.537,0.085 -0.222,0.056 -0.333,0.208 -0.333,0.453 0,0.161 0.101,0.272 0.305,0.333 0.203,0.062 0.645,0.092 1.325,0.092 h 1.885 c 0.784,0 1.414,0.062 1.892,0.184 0.477,0.123 0.829,0.29 1.056,0.503 0.227,0.212 0.375,0.451 0.446,0.715 0.071,0.265 0.106,0.591 0.106,0.978 0,0.491 -0.059,0.89 -0.177,1.197 -0.118,0.307 -0.316,0.548 -0.595,0.722 -0.279,0.175 -0.664,0.3 -1.155,0.376 -0.491,0.075 -1.139,0.114 -1.941,0.114 h -2.579 c -1.266,0 -2.154,-0.172 -2.664,-0.517 -0.51,-0.345 -0.765,-0.961 -0.765,-1.849 h 2.803 z"
     id="path50"
     inkscape:connector-curvature="0"
     style="filter:url(#filter33048)" /><path
     d="m 251.37,80.762 h 2.635 v 1.077 h 0.029 c 0.198,-0.368 0.491,-0.659 0.878,-0.871 0.387,-0.212 0.945,-0.319 1.672,-0.319 h 0.779 c 0.841,0 1.518,0.071 2.034,0.213 0.515,0.142 0.904,0.345 1.169,0.609 0.264,0.264 0.441,0.576 0.531,0.935 0.09,0.359 0.135,0.799 0.135,1.318 v 1.304 c 0,0.52 -0.045,0.959 -0.135,1.318 -0.09,0.359 -0.267,0.671 -0.531,0.935 -0.265,0.265 -0.654,0.468 -1.169,0.609 -0.515,0.142 -1.193,0.213 -2.034,0.213 h -0.552 c -0.406,0 -0.742,-0.019 -1.006,-0.057 -0.264,-0.038 -0.496,-0.104 -0.694,-0.198 -0.198,-0.094 -0.375,-0.229 -0.531,-0.404 -0.156,-0.175 -0.31,-0.409 -0.461,-0.702 h -0.028 v 3.769 h -2.721 z m 2.72,3.967 c 0,0.52 0.13,0.871 0.39,1.056 0.26,0.184 0.678,0.276 1.254,0.276 h 1.431 c 0.604,0 0.994,-0.097 1.169,-0.291 0.175,-0.193 0.262,-0.517 0.262,-0.971 v -0.85 c 0,-0.453 -0.088,-0.777 -0.262,-0.971 -0.175,-0.193 -0.565,-0.29 -1.169,-0.29 h -1.431 c -0.576,0 -0.994,0.092 -1.254,0.276 -0.26,0.184 -0.39,0.536 -0.39,1.056 z"
     id="path52"
     inkscape:connector-curvature="0"
     style="filter:url(#filter33016)" /><path
     d="m 262.733,83.511 c 0,-0.567 0.085,-1.039 0.255,-1.417 0.17,-0.378 0.399,-0.673 0.687,-0.886 0.288,-0.213 0.604,-0.359 0.949,-0.439 0.345,-0.08 0.711,-0.12 1.098,-0.12 h 4.067 c 0.387,0 0.753,0.04 1.098,0.12 0.345,0.081 0.661,0.227 0.949,0.439 0.288,0.212 0.517,0.508 0.687,0.886 0.17,0.378 0.255,0.85 0.255,1.417 v 1.729 c 0,0.567 -0.085,1.039 -0.255,1.417 -0.17,0.378 -0.399,0.673 -0.687,0.886 -0.288,0.212 -0.604,0.359 -0.949,0.439 -0.345,0.08 -0.711,0.12 -1.098,0.12 h -4.067 c -0.387,0 -0.754,-0.04 -1.098,-0.12 -0.345,-0.08 -0.662,-0.227 -0.949,-0.439 -0.289,-0.213 -0.517,-0.508 -0.687,-0.886 -0.17,-0.378 -0.255,-0.85 -0.255,-1.417 z m 2.721,1.204 c 0,0.501 0.146,0.85 0.439,1.049 0.293,0.198 0.765,0.298 1.417,0.298 h 0.652 c 0.453,0 0.815,-0.019 1.084,-0.057 0.269,-0.038 0.477,-0.099 0.624,-0.184 0.146,-0.085 0.248,-0.201 0.305,-0.347 0.057,-0.146 0.085,-0.347 0.085,-0.602 V 83.88 c 0,-0.255 -0.028,-0.458 -0.085,-0.609 -0.057,-0.151 -0.158,-0.269 -0.305,-0.354 -0.146,-0.085 -0.354,-0.144 -0.624,-0.177 -0.269,-0.033 -0.63,-0.05 -1.084,-0.05 h -0.652 c -0.652,0 -1.124,0.099 -1.417,0.298 -0.293,0.199 -0.439,0.548 -0.439,1.049 z"
     id="path54"
     inkscape:connector-curvature="0"
     style="filter:url(#filter32984)" /><path
     d="m 274.465,80.762 h 2.721 v 1.162 h 0.028 c 0.227,-0.482 0.572,-0.815 1.034,-0.999 0.463,-0.184 1.082,-0.276 1.856,-0.276 0.567,0 1.063,0.026 1.488,0.078 0.425,0.052 0.834,0.177 1.226,0.376 0.392,0.198 0.711,0.52 0.956,0.963 0.246,0.444 0.368,1.034 0.368,1.771 v 4.152 h -2.72 v -4.152 c 0,-0.708 -0.586,-1.063 -1.757,-1.063 h -0.624 c -0.586,0 -1.041,0.135 -1.367,0.404 -0.326,0.269 -0.489,0.659 -0.489,1.169 v 3.642 h -2.721 v -7.227 z"
     id="path56"
     inkscape:connector-curvature="0"
     style="filter:url(#filter33000)" /><path
     d="m 288.55,85.735 c 0,0.113 0.016,0.208 0.049,0.283 0.033,0.075 0.106,0.142 0.22,0.198 0.113,0.057 0.286,0.102 0.517,0.135 0.231,0.033 0.532,0.05 0.9,0.05 h 0.964 c 0.652,0 1.084,-0.036 1.297,-0.107 0.212,-0.071 0.319,-0.215 0.319,-0.432 0,-0.217 -0.08,-0.37 -0.241,-0.461 -0.161,-0.09 -0.472,-0.134 -0.935,-0.134 h -2.551 c -0.652,-0.01 -1.186,-0.055 -1.601,-0.135 -0.416,-0.08 -0.746,-0.215 -0.992,-0.404 -0.246,-0.189 -0.423,-0.444 -0.531,-0.765 -0.109,-0.321 -0.163,-0.737 -0.163,-1.247 0,-0.435 0.082,-0.791 0.248,-1.07 0.165,-0.279 0.394,-0.489 0.687,-0.631 0.293,-0.142 0.633,-0.238 1.02,-0.29 0.387,-0.052 0.841,-0.078 1.361,-0.078 h 1.898 c 0.907,0 1.632,0.036 2.175,0.107 0.543,0.071 0.961,0.189 1.254,0.354 0.293,0.165 0.494,0.383 0.602,0.652 0.108,0.269 0.167,0.63 0.177,1.084 h -2.72 c -0.038,-0.114 -0.09,-0.201 -0.156,-0.262 -0.066,-0.062 -0.168,-0.111 -0.305,-0.149 -0.137,-0.038 -0.324,-0.062 -0.559,-0.071 -0.237,-0.009 -0.572,-0.014 -1.006,-0.014 -0.803,0 -1.316,0.029 -1.537,0.085 -0.222,0.056 -0.333,0.208 -0.333,0.453 0,0.161 0.101,0.272 0.305,0.333 0.203,0.062 0.645,0.092 1.325,0.092 h 1.885 c 0.784,0 1.414,0.062 1.892,0.184 0.477,0.123 0.829,0.29 1.056,0.503 0.227,0.212 0.375,0.451 0.446,0.715 0.071,0.265 0.106,0.591 0.106,0.978 0,0.491 -0.059,0.89 -0.177,1.197 -0.118,0.307 -0.316,0.548 -0.595,0.722 -0.279,0.175 -0.664,0.3 -1.155,0.376 -0.491,0.075 -1.139,0.114 -1.941,0.114 h -2.579 c -1.266,0 -2.154,-0.172 -2.664,-0.517 -0.51,-0.345 -0.765,-0.961 -0.765,-1.849 h 2.803 z"
     id="path58"
     inkscape:connector-curvature="0"
     style="filter:url(#filter32968)" /><path
     d="m 300.097,79.855 h -2.72 V 77.73 h 2.72 z m 0,8.133 h -2.72 v -7.226 h 2.72 z"
     id="path60"
     inkscape:connector-curvature="0"
     style="filter:url(#filter32920)" /><path
     d="m 301.274,80.762 h 2.962 l 2.21,5.101 2.21,-5.101 h 2.961 l -3.471,7.226 h -3.401 z"
     id="path62"
     inkscape:connector-curvature="0"
     style="filter:url(#filter32952)" /><path
     d="m 312.298,83.978 c 0,-0.661 0.078,-1.212 0.234,-1.651 0.156,-0.439 0.38,-0.779 0.673,-1.02 0.293,-0.241 0.64,-0.411 1.042,-0.51 0.401,-0.099 0.866,-0.149 1.396,-0.149 h 1.899 c 0.755,0 1.386,0.048 1.891,0.142 0.505,0.094 0.919,0.255 1.24,0.482 0.321,0.227 0.56,0.541 0.716,0.942 0.156,0.402 0.234,0.919 0.234,1.551 v 1.219 h -6.603 v 0.439 c 0,0.368 0.13,0.624 0.39,0.765 0.26,0.142 0.687,0.213 1.282,0.213 h 0.836 c 0.359,0 0.642,-0.021 0.85,-0.064 0.208,-0.042 0.361,-0.101 0.461,-0.177 0.099,-0.076 0.163,-0.158 0.191,-0.248 0.028,-0.089 0.042,-0.2 0.042,-0.333 h 2.55 v 0.312 c 0,0.435 -0.09,0.799 -0.269,1.091 -0.18,0.293 -0.432,0.52 -0.758,0.68 -0.326,0.161 -0.701,0.274 -1.126,0.34 -0.425,0.066 -0.902,0.099 -1.431,0.099 h -2.04 c -0.52,0 -0.99,-0.038 -1.41,-0.114 -0.421,-0.075 -0.805,-0.231 -1.155,-0.468 -0.349,-0.236 -0.626,-0.586 -0.829,-1.049 -0.203,-0.463 -0.305,-1.063 -0.305,-1.8 v -0.692 z m 6.688,-0.609 c 0,-0.425 -0.127,-0.702 -0.383,-0.829 -0.255,-0.128 -0.789,-0.192 -1.601,-0.192 -0.473,0 -0.834,0.014 -1.084,0.042 -0.25,0.029 -0.442,0.076 -0.574,0.142 -0.133,0.066 -0.22,0.163 -0.262,0.291 -0.042,0.127 -0.064,0.309 -0.064,0.546 z"
     id="path64"
     inkscape:connector-curvature="0"
     style="filter:url(#filter32936)" /><path
     d="m 329.287,77.729 h 3.443 l 4.01,7.623 4.01,-7.623 h 3.443 l -5.512,10.259 h -3.883 z"
     id="path66"
     inkscape:connector-curvature="0"
     style="fill:#e52d27" /><path
     d="m 347.551,79.855 h -2.72 V 77.73 h 2.72 z m 0,8.133 h -2.72 v -7.226 h 2.72 z"
     id="path68"
     inkscape:connector-curvature="0"
     style="fill:#e52d27" /><path
     d="m 349.393,83.723 c 0,-0.519 0.045,-0.959 0.135,-1.318 0.09,-0.359 0.267,-0.671 0.531,-0.935 0.264,-0.264 0.654,-0.468 1.169,-0.609 0.515,-0.142 1.193,-0.213 2.033,-0.213 h 0.808 c 0.302,0 0.586,0.024 0.85,0.071 0.264,0.047 0.51,0.125 0.737,0.234 0.227,0.109 0.416,0.258 0.567,0.446 0.151,0.189 0.245,0.421 0.283,0.695 h 0.028 V 77.73 h 2.72 v 10.259 h -2.55 v -1.332 h -0.028 c -0.161,0.473 -0.442,0.831 -0.843,1.077 -0.402,0.246 -0.994,0.369 -1.778,0.369 h -0.793 c -0.841,0 -1.518,-0.071 -2.033,-0.213 -0.515,-0.142 -0.905,-0.345 -1.169,-0.609 -0.265,-0.264 -0.442,-0.576 -0.531,-0.935 -0.09,-0.359 -0.135,-0.798 -0.135,-1.318 v -1.305 z m 2.635,1.077 c 0,0.454 0.087,0.777 0.262,0.971 0.175,0.194 0.565,0.291 1.169,0.291 h 1.601 c 0.576,0 0.994,-0.092 1.254,-0.276 0.26,-0.184 0.39,-0.536 0.39,-1.056 v -0.708 c 0,-0.52 -0.13,-0.871 -0.39,-1.056 -0.26,-0.184 -0.678,-0.276 -1.254,-0.276 h -1.601 c -0.604,0 -0.994,0.097 -1.169,0.29 -0.175,0.194 -0.262,0.517 -0.262,0.971 z"
     id="path70"
     inkscape:connector-curvature="0"
     style="fill:#e52d27" /><path
     d="m 360.785,83.978 c 0,-0.661 0.078,-1.212 0.234,-1.651 0.156,-0.439 0.38,-0.779 0.673,-1.02 0.293,-0.241 0.64,-0.411 1.042,-0.51 0.401,-0.099 0.866,-0.149 1.396,-0.149 h 1.899 c 0.755,0 1.386,0.048 1.891,0.142 0.505,0.094 0.919,0.255 1.24,0.482 0.321,0.227 0.56,0.541 0.716,0.942 0.156,0.402 0.234,0.919 0.234,1.551 v 1.219 h -6.603 v 0.439 c 0,0.368 0.13,0.624 0.39,0.765 0.26,0.142 0.687,0.213 1.282,0.213 h 0.836 c 0.359,0 0.642,-0.021 0.85,-0.064 0.208,-0.042 0.361,-0.101 0.461,-0.177 0.099,-0.076 0.163,-0.158 0.191,-0.248 0.028,-0.089 0.042,-0.2 0.042,-0.333 h 2.55 v 0.312 c 0,0.435 -0.09,0.799 -0.269,1.091 -0.18,0.293 -0.432,0.52 -0.758,0.68 -0.326,0.161 -0.701,0.274 -1.126,0.34 -0.425,0.066 -0.902,0.099 -1.431,0.099 h -2.041 c -0.52,0 -0.99,-0.038 -1.41,-0.114 -0.421,-0.075 -0.805,-0.231 -1.155,-0.468 -0.349,-0.236 -0.626,-0.586 -0.829,-1.049 -0.203,-0.463 -0.305,-1.063 -0.305,-1.8 z m 6.688,-0.609 c 0,-0.425 -0.127,-0.702 -0.383,-0.829 -0.255,-0.128 -0.789,-0.192 -1.601,-0.192 -0.473,0 -0.834,0.014 -1.084,0.042 -0.25,0.029 -0.442,0.076 -0.574,0.142 -0.133,0.066 -0.22,0.163 -0.262,0.291 -0.042,0.127 -0.064,0.309 -0.064,0.546 z"
     id="path72"
     inkscape:connector-curvature="0"
     style="fill:#e52d27" /><path
     d="m 371.455,83.511 c 0,-0.567 0.085,-1.039 0.255,-1.417 0.17,-0.378 0.399,-0.673 0.687,-0.886 0.288,-0.213 0.604,-0.359 0.949,-0.439 0.345,-0.08 0.711,-0.12 1.098,-0.12 h 4.067 c 0.387,0 0.753,0.04 1.098,0.12 0.345,0.081 0.661,0.227 0.949,0.439 0.288,0.212 0.517,0.508 0.687,0.886 0.17,0.378 0.255,0.85 0.255,1.417 v 1.729 c 0,0.567 -0.085,1.039 -0.255,1.417 -0.17,0.378 -0.399,0.673 -0.687,0.886 -0.288,0.212 -0.604,0.359 -0.949,0.439 -0.345,0.08 -0.711,0.12 -1.098,0.12 h -4.067 c -0.387,0 -0.754,-0.04 -1.098,-0.12 -0.345,-0.08 -0.662,-0.227 -0.949,-0.439 -0.289,-0.213 -0.517,-0.508 -0.687,-0.886 -0.17,-0.378 -0.255,-0.85 -0.255,-1.417 z m 2.72,1.204 c 0,0.501 0.146,0.85 0.439,1.049 0.293,0.198 0.765,0.298 1.417,0.298 h 0.652 c 0.453,0 0.815,-0.019 1.084,-0.057 0.269,-0.038 0.477,-0.099 0.624,-0.184 0.146,-0.085 0.248,-0.201 0.305,-0.347 0.057,-0.146 0.085,-0.347 0.085,-0.602 V 83.88 c 0,-0.255 -0.028,-0.458 -0.085,-0.609 -0.057,-0.151 -0.158,-0.269 -0.305,-0.354 -0.146,-0.085 -0.354,-0.144 -0.624,-0.177 -0.269,-0.033 -0.63,-0.05 -1.084,-0.05 h -0.652 c -0.652,0 -1.124,0.099 -1.417,0.298 -0.293,0.199 -0.439,0.548 -0.439,1.049 z"
     id="path74"
     inkscape:connector-curvature="0"
     style="fill:#e52d27" /><path
     d="m 390.314,77.729 h 11.222 v 2.381 h -8.077 v 1.644 h 7.651 v 2.125 h -7.651 v 1.644 h 8.261 v 2.466 h -11.406 z"
     id="path76"
     inkscape:connector-curvature="0"
     style="filter:url(#filter32904)" /><path
     d="m 403.364,80.762 h 2.593 v 1.417 h 0.028 c 0.066,-0.5 0.312,-0.881 0.737,-1.141 0.425,-0.26 0.982,-0.39 1.672,-0.39 h 1.034 c 1.275,0 2.168,0.562 2.678,1.686 0.227,-0.652 0.52,-1.096 0.878,-1.332 0.359,-0.236 0.926,-0.354 1.7,-0.354 h 0.836 c 1.199,0 2.062,0.276 2.586,0.829 0.524,0.553 0.786,1.368 0.786,2.444 v 4.067 h -2.72 v -3.883 c 0,-0.264 -0.024,-0.479 -0.071,-0.645 -0.047,-0.165 -0.132,-0.295 -0.255,-0.39 -0.246,-0.198 -0.751,-0.298 -1.516,-0.298 -0.671,0 -1.146,0.09 -1.424,0.269 -0.279,0.179 -0.418,0.5 -0.418,0.963 v 3.982 h -2.721 v -4.095 c 0,-0.236 -0.026,-0.425 -0.078,-0.567 -0.052,-0.142 -0.149,-0.253 -0.291,-0.333 -0.142,-0.08 -0.338,-0.137 -0.588,-0.17 -0.25,-0.033 -0.588,-0.05 -1.013,-0.05 -0.604,0 -1.041,0.099 -1.311,0.298 -0.269,0.198 -0.404,0.567 -0.404,1.105 v 3.811 h -2.72 v -7.223 z"
     id="path78"
     inkscape:connector-curvature="0"
     style="filter:url(#filter32888)" /><path
     d="m 420.636,77.729 h 2.721 v 4.364 h 0.028 c 0.038,-0.274 0.132,-0.505 0.283,-0.695 0.151,-0.189 0.338,-0.338 0.56,-0.446 0.222,-0.108 0.468,-0.186 0.737,-0.234 0.269,-0.048 0.555,-0.071 0.857,-0.071 h 0.807 c 0.841,0 1.518,0.071 2.034,0.213 0.515,0.142 0.904,0.345 1.169,0.609 0.264,0.264 0.441,0.576 0.531,0.935 0.09,0.359 0.135,0.799 0.135,1.318 v 1.304 c 0,0.52 -0.045,0.959 -0.135,1.318 -0.09,0.359 -0.267,0.671 -0.531,0.935 -0.265,0.265 -0.654,0.468 -1.169,0.609 -0.515,0.142 -1.193,0.213 -2.034,0.213 h -0.793 c -0.784,0 -1.377,-0.123 -1.778,-0.369 -0.402,-0.245 -0.682,-0.604 -0.843,-1.077 h -0.029 v 1.332 h -2.55 z m 2.551,7 c 0,0.52 0.13,0.871 0.39,1.056 0.26,0.184 0.677,0.276 1.254,0.276 h 1.601 c 0.604,0 0.994,-0.097 1.169,-0.291 0.175,-0.193 0.262,-0.517 0.262,-0.971 v -0.85 c 0,-0.453 -0.087,-0.777 -0.262,-0.971 -0.175,-0.193 -0.565,-0.29 -1.169,-0.29 h -1.601 c -0.576,0 -0.994,0.092 -1.254,0.276 -0.26,0.184 -0.39,0.536 -0.39,1.056 z"
     id="path80"
     inkscape:connector-curvature="0"
     style="filter:url(#filter32872)" /><path
     d="m 431.844,83.978 c 0,-0.661 0.078,-1.212 0.234,-1.651 0.156,-0.439 0.38,-0.779 0.673,-1.02 0.293,-0.241 0.64,-0.411 1.042,-0.51 0.401,-0.099 0.866,-0.149 1.396,-0.149 h 1.899 c 0.755,0 1.386,0.048 1.891,0.142 0.505,0.094 0.919,0.255 1.24,0.482 0.321,0.227 0.56,0.541 0.716,0.942 0.156,0.402 0.234,0.919 0.234,1.551 v 1.219 h -6.603 v 0.439 c 0,0.368 0.13,0.624 0.39,0.765 0.26,0.142 0.687,0.213 1.282,0.213 h 0.836 c 0.359,0 0.642,-0.021 0.85,-0.064 0.208,-0.042 0.361,-0.101 0.461,-0.177 0.099,-0.076 0.163,-0.158 0.191,-0.248 0.028,-0.089 0.042,-0.2 0.042,-0.333 h 2.55 v 0.312 c 0,0.435 -0.09,0.799 -0.269,1.091 -0.18,0.293 -0.432,0.52 -0.758,0.68 -0.326,0.161 -0.701,0.274 -1.126,0.34 -0.425,0.066 -0.902,0.099 -1.431,0.099 h -2.04 c -0.52,0 -0.99,-0.038 -1.41,-0.114 -0.421,-0.075 -0.805,-0.231 -1.155,-0.468 -0.349,-0.236 -0.626,-0.586 -0.829,-1.049 -0.203,-0.463 -0.305,-1.063 -0.305,-1.8 v -0.692 z m 6.688,-0.609 c 0,-0.425 -0.127,-0.702 -0.383,-0.829 -0.255,-0.128 -0.789,-0.192 -1.601,-0.192 -0.473,0 -0.834,0.014 -1.084,0.042 -0.25,0.029 -0.442,0.076 -0.574,0.142 -0.133,0.066 -0.22,0.163 -0.262,0.291 -0.042,0.127 -0.064,0.309 -0.064,0.546 z"
     id="path82"
     inkscape:connector-curvature="0"
     style="filter:url(#filter32856)" /><path
     d="m 442.514,83.723 c 0,-0.519 0.045,-0.959 0.135,-1.318 0.09,-0.359 0.267,-0.671 0.531,-0.935 0.264,-0.264 0.654,-0.468 1.169,-0.609 0.515,-0.142 1.193,-0.213 2.033,-0.213 h 0.808 c 0.302,0 0.586,0.024 0.85,0.071 0.264,0.047 0.51,0.125 0.737,0.234 0.227,0.109 0.416,0.258 0.567,0.446 0.151,0.189 0.245,0.421 0.283,0.695 h 0.028 V 77.73 h 2.72 v 10.259 h -2.55 v -1.332 h -0.028 c -0.161,0.473 -0.442,0.831 -0.843,1.077 -0.402,0.246 -0.994,0.369 -1.778,0.369 h -0.793 c -0.841,0 -1.518,-0.071 -2.033,-0.213 -0.515,-0.142 -0.905,-0.345 -1.169,-0.609 -0.265,-0.264 -0.442,-0.576 -0.531,-0.935 -0.09,-0.359 -0.135,-0.798 -0.135,-1.318 v -1.305 z m 2.635,1.077 c 0,0.454 0.087,0.777 0.262,0.971 0.175,0.194 0.565,0.291 1.169,0.291 h 1.601 c 0.576,0 0.994,-0.092 1.254,-0.276 0.26,-0.184 0.39,-0.536 0.39,-1.056 v -0.708 c 0,-0.52 -0.13,-0.871 -0.39,-1.056 -0.26,-0.184 -0.678,-0.276 -1.254,-0.276 h -1.601 c -0.604,0 -0.994,0.097 -1.169,0.29 -0.175,0.194 -0.262,0.517 -0.262,0.971 z"
     id="path84"
     inkscape:connector-curvature="0"
     style="filter:url(#filter32840)" /><path
     d="m 454.062,83.723 c 0,-0.519 0.045,-0.959 0.135,-1.318 0.09,-0.359 0.267,-0.671 0.531,-0.935 0.264,-0.264 0.654,-0.468 1.169,-0.609 0.515,-0.142 1.193,-0.213 2.033,-0.213 h 0.808 c 0.302,0 0.586,0.024 0.85,0.071 0.264,0.047 0.51,0.125 0.737,0.234 0.227,0.109 0.416,0.258 0.567,0.446 0.151,0.189 0.245,0.421 0.283,0.695 h 0.028 V 77.73 h 2.72 v 10.259 h -2.55 v -1.332 h -0.028 c -0.161,0.473 -0.442,0.831 -0.843,1.077 -0.402,0.246 -0.994,0.369 -1.778,0.369 h -0.793 c -0.841,0 -1.518,-0.071 -2.033,-0.213 -0.515,-0.142 -0.905,-0.345 -1.169,-0.609 -0.265,-0.264 -0.442,-0.576 -0.531,-0.935 -0.09,-0.359 -0.135,-0.798 -0.135,-1.318 v -1.305 z m 2.635,1.077 c 0,0.454 0.088,0.777 0.262,0.971 0.175,0.194 0.565,0.291 1.169,0.291 h 1.601 c 0.576,0 0.994,-0.092 1.254,-0.276 0.26,-0.184 0.39,-0.536 0.39,-1.056 v -0.708 c 0,-0.52 -0.13,-0.871 -0.39,-1.056 -0.26,-0.184 -0.678,-0.276 -1.254,-0.276 h -1.601 c -0.604,0 -0.994,0.097 -1.169,0.29 -0.175,0.194 -0.262,0.517 -0.262,0.971 z"
     id="path86"
     inkscape:connector-curvature="0"
     style="filter:url(#filter32824)" /><path
     d="m 465.454,83.978 c 0,-0.661 0.078,-1.212 0.234,-1.651 0.156,-0.439 0.38,-0.779 0.673,-1.02 0.293,-0.241 0.64,-0.411 1.042,-0.51 0.401,-0.099 0.866,-0.149 1.396,-0.149 h 1.899 c 0.755,0 1.386,0.048 1.891,0.142 0.505,0.094 0.919,0.255 1.24,0.482 0.321,0.227 0.56,0.541 0.716,0.942 0.156,0.402 0.234,0.919 0.234,1.551 v 1.219 h -6.603 v 0.439 c 0,0.368 0.13,0.624 0.39,0.765 0.26,0.142 0.687,0.213 1.282,0.213 h 0.836 c 0.359,0 0.642,-0.021 0.85,-0.064 0.208,-0.042 0.361,-0.101 0.461,-0.177 0.099,-0.076 0.163,-0.158 0.191,-0.248 0.028,-0.089 0.042,-0.2 0.042,-0.333 h 2.551 v 0.312 c 0,0.435 -0.09,0.799 -0.269,1.091 -0.18,0.293 -0.432,0.52 -0.758,0.68 -0.326,0.161 -0.701,0.274 -1.126,0.34 -0.425,0.066 -0.902,0.099 -1.431,0.099 h -2.04 c -0.52,0 -0.99,-0.038 -1.41,-0.114 -0.421,-0.075 -0.806,-0.231 -1.155,-0.468 -0.349,-0.236 -0.626,-0.586 -0.829,-1.049 -0.203,-0.463 -0.305,-1.063 -0.305,-1.8 v -0.692 z m 6.688,-0.609 c 0,-0.425 -0.127,-0.702 -0.383,-0.829 -0.255,-0.128 -0.789,-0.192 -1.601,-0.192 -0.473,0 -0.834,0.014 -1.084,0.042 -0.25,0.029 -0.442,0.076 -0.574,0.142 -0.133,0.066 -0.22,0.163 -0.262,0.291 -0.042,0.127 -0.064,0.309 -0.064,0.546 z"
     id="path88"
     inkscape:connector-curvature="0"
     style="filter:url(#filter32808)" /><path
     d="m 476.307,80.762 h 2.551 v 1.374 h 0.029 c 0.142,-0.539 0.448,-0.921 0.921,-1.148 0.472,-0.227 1.049,-0.34 1.729,-0.34 0.982,0 1.688,0.224 2.118,0.673 0.43,0.448 0.645,1.174 0.645,2.175 0,0.104 0,0.269 -0.014,0.496 -0.01,0.056 -0.014,0.104 -0.014,0.142 h -2.352 c 0,-0.491 -0.088,-0.841 -0.262,-1.049 -0.175,-0.208 -0.522,-0.312 -1.042,-0.312 -0.491,0 -0.878,0.099 -1.162,0.298 -0.283,0.198 -0.425,0.506 -0.425,0.921 v 3.996 h -2.721 v -7.226 z"
     id="path90"
     inkscape:connector-curvature="0"
     style="filter:url(#filter32792)" /><g
     id="g98"
     transform="translate(-557.291,-552.87)"
     style="filter:url(#filter32776)"><g
       id="g96"><rect
         id="rect94"
         height="1.5"
         width="372.21399"
         y="645.63"
         x="670.49597" /></g></g><path
     style="fill:#e52d27"
     inkscape:connector-curvature="0"
     id="path104"
     d="M 0,0 V 94.219 H 94.219 V 0 Z m 69.557,53.611 -38,21.635 c -4.582,2.609 -8.331,0.429 -8.331,-4.844 v -43.07 c 0,-5.273 3.749,-7.452 8.331,-4.844 l 38,21.635 c 4.582,2.61 4.582,6.879 0,9.488 z" /><g
     id="g116"
     transform="translate(-557.291,-552.87)"><path
       style="fill:#e52d27"
       inkscape:connector-curvature="0"
       id="path106"
       d="m 589.951,590.727 c -4.731,0 -1.304,0 -6.035,0 -2.84,0 -2.84,4.404 0,4.404 4.731,0 1.304,0 6.035,0 2.84,0 2.84,-4.404 0,-4.404 z" /><path
       style="fill:#e52d27"
       inkscape:connector-curvature="0"
       id="path108"
       d="m 589.951,599.535 c -4.731,0 -1.304,0 -6.035,0 -2.84,0 -2.84,4.404 0,4.404 4.731,0 1.304,0 6.035,0 2.84,0.001 2.84,-4.404 0,-4.404 z" /><path
       style="fill:#e52d27"
       inkscape:connector-curvature="0"
       id="path110"
       d="m 589.951,617.153 c -4.731,0 -1.304,0 -6.035,0 -2.84,0 -2.84,4.404 0,4.404 4.731,0 1.304,0 6.035,0 2.84,0 2.84,-4.404 0,-4.404 z" /><path
       style="fill:#e52d27"
       inkscape:connector-curvature="0"
       id="path112"
       d="m 589.951,608.344 c -4.731,0 -1.304,0 -6.035,0 -2.84,0 -2.84,4.404 0,4.404 4.731,0 1.304,0 6.035,0 2.84,0 2.84,-4.404 0,-4.404 z" /><path
       style="fill:#e52d27"
       inkscape:connector-curvature="0"
       id="path114"
       d="m 589.951,581.918 c -4.731,0 -1.304,0 -6.035,0 -2.84,0 -2.84,4.404 0,4.404 4.731,0 1.304,0 6.035,0 2.84,0 2.84,-4.404 0,-4.404 z" /></g><path
     style="fill:none"
     inkscape:connector-curvature="0"
     id="path118"
     d="M 59.488,23.077 C 55.255,15.941 47.465,11.072 38.705,11.072 c -13.16,0 -24.142,10.982 -24.142,24.142 0,3.537 0.798,6.913 2.214,9.964 -4.157,4.353 -6.741,10.214 -6.741,16.592 0,13.16 10.982,24.142 24.142,24.142 0.474,0 0.943,-0.019 1.411,-0.047 l -4.873,-4.844 -5.805,-5.805 0.011,-0.006 c 1.524,1.448 3.931,1.587 6.636,0.047 l 38,-21.635 c 2.797,-1.593 3.877,-3.803 3.259,-5.878 l 0.005,-0.003 4.581,4.604 1.834,1.787 C 79.958,51.866 80.35,49.464 80.35,46.983 80.349,34.934 71.142,24.718 59.488,23.077 Z" /><g
     id="g127"
     transform="translate(-557.291,-552.87)"><linearGradient
       y2="637.09222"
       x2="624.36292"
       y1="748.50519"
       x1="692.52698"
       gradientUnits="userSpaceOnUse"
       id="SVGID_1_"><stop
         id="stop120"
         style="stop-color:#231F20;stop-opacity:0"
         offset="0" /><stop
         id="stop122"
         style="stop-color:#231F20"
         offset="1" /></linearGradient><path
       style="opacity:0.4;fill:url(#SVGID_1_)"
       inkscape:connector-curvature="0"
       id="path125"
       d="m 636.527,607.001 -1.834,-1.787 -4.581,-4.604 -0.005,0.003 c 0.618,2.075 -0.462,4.285 -3.259,5.878 l -38,21.635 c -2.704,1.54 -5.111,1.401 -6.636,-0.047 l -0.011,0.006 5.805,5.805 4.873,4.844 8.511,8.395 50.118,-0.041 v -25.532 z" /></g></svg>